<svg width="150" height="30" viewBox="0 0 150 30" fill="none" xmlns="http://www.w3.org/2000/svg">
<g clip-path="url(#clip0_2480_9905)">
<path d="M13.6315 4.04908C14.1616 2.86802 15.8384 2.86802 16.3685 4.04908L18.8094 9.48751C19.0275 9.9735 19.487 10.3074 20.0166 10.3646L25.9431 11.0055C27.2302 11.1446 27.7483 12.7394 26.7889 13.6085L22.3709 17.6104C21.9761 17.9681 21.8006 18.5082 21.9098 19.0296L23.1317 24.8641C23.3971 26.1312 22.0405 27.1168 20.9174 26.4729L15.7461 23.5078C15.284 23.2428 14.716 23.2428 14.2539 23.5078L9.08255 26.4729C7.9595 27.1168 6.60293 26.1312 6.8683 24.8641L8.09022 19.0296C8.19942 18.5082 8.0239 17.9681 7.6291 17.6104L3.21112 13.6085C2.25166 12.7394 2.76983 11.1446 4.05689 11.0055L9.98341 10.3646C10.513 10.3074 10.9725 9.9735 11.1906 9.48751L13.6315 4.04908Z" fill="#EFBD3E"/>
<path d="M43.6315 4.04908C44.1616 2.86802 45.8384 2.86802 46.3685 4.04908L48.8094 9.48751C49.0275 9.9735 49.487 10.3074 50.0166 10.3646L55.9431 11.0055C57.2302 11.1446 57.7483 12.7394 56.7889 13.6085L52.3709 17.6104C51.9761 17.9681 51.8006 18.5082 51.9098 19.0296L53.1317 24.8641C53.3971 26.1312 52.0405 27.1168 50.9174 26.4729L45.7461 23.5078C45.284 23.2428 44.716 23.2428 44.2539 23.5078L39.0826 26.4729C37.9595 27.1168 36.6029 26.1312 36.8683 24.8641L38.0902 19.0296C38.1994 18.5082 38.0239 17.9681 37.6291 17.6104L33.2111 13.6085C32.2517 12.7394 32.7698 11.1446 34.0569 11.0055L39.9834 10.3646C40.513 10.3074 40.9725 9.9735 41.1906 9.48751L43.6315 4.04908Z" fill="#EFBD3E"/>
<path d="M73.6315 4.04908C74.1616 2.86802 75.8384 2.86802 76.3685 4.04908L78.8094 9.48751C79.0275 9.9735 79.487 10.3074 80.0166 10.3646L85.9431 11.0055C87.2302 11.1446 87.7483 12.7394 86.7889 13.6085L82.3709 17.6104C81.9761 17.9681 81.8006 18.5082 81.9098 19.0296L83.1317 24.8641C83.3971 26.1312 82.0405 27.1168 80.9174 26.4729L75.7461 23.5078C75.284 23.2428 74.716 23.2428 74.2539 23.5078L69.0826 26.4729C67.9595 27.1168 66.6029 26.1312 66.8683 24.8641L68.0902 19.0296C68.1994 18.5082 68.0239 17.9681 67.6291 17.6104L63.2111 13.6085C62.2517 12.7394 62.7698 11.1446 64.0569 11.0055L69.9834 10.3646C70.513 10.3074 70.9725 9.9735 71.1906 9.48751L73.6315 4.04908Z" fill="#EFBD3E"/>
<path d="M103.632 4.04908C104.162 2.86802 105.838 2.86802 106.368 4.04908L108.809 9.48751C109.027 9.9735 109.487 10.3074 110.017 10.3646L115.943 11.0055C117.23 11.1446 117.748 12.7394 116.789 13.6085L112.371 17.6104C111.976 17.9681 111.801 18.5082 111.91 19.0296L113.132 24.8641C113.397 26.1312 112.041 27.1168 110.917 26.4729L105.746 23.5078C105.284 23.2428 104.716 23.2428 104.254 23.5078L99.0826 26.4729C97.9595 27.1168 96.6029 26.1312 96.8683 24.8641L98.0902 19.0296C98.1994 18.5082 98.0239 17.9681 97.6291 17.6104L93.2111 13.6085C92.2517 12.7394 92.7698 11.1446 94.0569 11.0055L99.9834 10.3646C100.513 10.3074 100.973 9.9735 101.191 9.48751L103.632 4.04908Z" fill="#EFBD3E"/>
<path d="M133.632 4.04908C134.162 2.86802 135.838 2.86802 136.368 4.04908L138.809 9.48751C139.027 9.9735 139.487 10.3074 140.017 10.3646L145.943 11.0055C147.23 11.1446 147.748 12.7394 146.789 13.6085L142.371 17.6104C141.976 17.9681 141.801 18.5082 141.91 19.0296L143.132 24.8641C143.397 26.1312 142.041 27.1168 140.917 26.4729L135.746 23.5078C135.284 23.2428 134.716 23.2428 134.254 23.5078L129.083 26.4729C127.959 27.1168 126.603 26.1312 126.868 24.8641L128.09 19.0296C128.199 18.5082 128.024 17.9681 127.629 17.6104L123.211 13.6085C122.252 12.7394 122.77 11.1446 124.057 11.0055L129.983 10.3646C130.513 10.3074 130.973 9.9735 131.191 9.48751L133.632 4.04908Z" fill="#EFBD3E"/>
</g>
<defs>
<clipPath id="clip0_2480_9905">
<rect width="150" height="30" fill="white"/>
</clipPath>
</defs>
</svg>
