<svg width="106" height="30" viewBox="0 0 106 30" fill="none" xmlns="http://www.w3.org/2000/svg">
<path d="M46.1522 14.8898C46.1758 14.0891 46.0172 13.2934 45.6877 12.5623C45.3586 11.8312 44.8672 11.1837 44.2505 10.6681C42.8662 9.55236 41.1211 8.97533 39.3405 9.04466H32.739V11.9735H39.3405C40.2448 11.9379 41.1304 12.236 41.8272 12.8103C42.1482 13.0816 42.4041 13.4207 42.5765 13.8029C42.749 14.185 42.8336 14.6007 42.8243 15.0195C42.8369 15.4341 42.7539 15.8461 42.5818 16.2239C42.4097 16.6018 42.1531 16.9355 41.8313 17.1994C41.1297 17.7679 40.2451 18.0651 39.3405 18.0363H36.0965V13.6011H32.7305V20.9526H39.3321C41.1253 21.0145 42.8747 20.3951 44.2253 19.2204C44.8452 18.6823 45.3386 18.0157 45.6718 17.2675C46.0046 16.5194 46.1685 15.7078 46.1522 14.8898Z" fill="#414042"/>
<path d="M49.8148 14.8939C49.7989 15.7117 49.9632 16.5231 50.2964 17.2712C50.6292 18.0193 51.1226 18.6859 51.7421 19.2244C53.0915 20.3986 54.8399 21.0179 56.6322 20.9566H62.4229V18.0278H56.6322C55.7295 18.0588 54.8468 17.7612 54.1491 17.1909C53.8298 16.9278 53.5743 16.5961 53.4023 16.2207C53.2302 15.8453 53.146 15.436 53.1561 15.0236C53.1468 14.6052 53.231 14.1899 53.4027 13.8078C53.5743 13.4258 53.8294 13.0864 54.1491 12.8143C54.8435 12.2381 55.7287 11.9398 56.6322 11.9776H62.4229V9.04866H56.6322C54.8496 8.97867 53.1029 9.5557 51.7169 10.6721C51.1002 11.1877 50.6088 11.8353 50.2793 12.5664C49.9498 13.2975 49.7912 14.0931 49.8148 14.8939Z" fill="#414042"/>
<path d="M73.3321 11.9742L76.0548 9.04297H64.2578V20.9607H75.4796V18.042H67.5557V16.3837H75.4796V13.5864H67.5557V11.9742H73.3321Z" fill="#414042"/>
<path d="M91.1976 9H87.8322V15.9475L80.5677 9.50634C80.3924 9.33637 80.1824 9.20486 79.9518 9.12049C79.7215 9.03608 79.4754 9.0007 79.2301 9.0166C79.0304 9.00559 78.8303 9.03694 78.644 9.10853C78.4572 9.18012 78.2888 9.2903 78.1489 9.43163C77.8938 9.71223 77.7592 10.08 77.7746 10.4567V20.8324H81.1396V13.9015L88.4 20.3468C88.5933 20.5392 88.8255 20.6894 89.0814 20.7873C89.3369 20.8853 89.6111 20.9289 89.8852 20.9154C90.7684 20.9154 91.1976 20.4173 91.1976 19.3881V9Z" fill="#414042"/>
<path d="M105.545 9.04297H92.5273V11.9743H97.3856V20.9608H100.691V11.9743H105.545V9.04297Z" fill="#414042"/>
<path d="M48.7155 11.9197H47.2543L46.1523 9.04297H49.8134L48.7155 11.9197Z" fill="#27C4B8"/>
<path d="M14.3828 5.66589L16.6001 4.3749V1.29096L14.3828 0V5.66589Z" fill="#A4A7A9"/>
<path d="M6.21698 19.0859V10.4162L13.6471 6.1004V0L1.37652 7.14247C1.26226 7.20949 1.16738 7.30549 1.10132 7.42093C1.03526 7.53641 1.00034 7.6673 1 7.80058V22.1446L6.21698 19.0859Z" fill="#27C4B8"/>
<path d="M21.4215 19.6992L14.004 24.015L6.63243 19.7245L1.39453 22.7747L13.6484 29.9003C13.763 29.9666 13.8928 30.0015 14.0249 30.0015C14.1571 30.0021 14.2871 29.9671 14.4014 29.9003L26.6762 22.7536L21.4215 19.6992Z" fill="#6D6E71"/>
<path d="M26.6564 7.14331L21.7909 4.3125V7.39646L16.5781 10.4382L21.8076 13.48V19.0362L27.0371 22.1033V7.80146C27.0363 7.66774 27.0008 7.5366 26.934 7.42108C26.8672 7.3056 26.7714 7.20981 26.6564 7.14331Z" fill="#A4A7A9"/>
<path d="M11.4062 13.4424L11.4104 19.4837L16.4977 16.5221V10.4766L11.4062 13.4424Z" fill="#6D6E71"/>
</svg>
