<svg width="126" height="64" viewBox="0 0 126 64" fill="none" xmlns="http://www.w3.org/2000/svg">
<g clip-path="url(#clip0_2570_18249)">
<path fill-rule="evenodd" clip-rule="evenodd" d="M72.3495 17.164C73.4352 17.164 74.521 16.7418 75.3654 15.8974C77.0543 14.2085 77.0543 11.4942 75.3654 9.86564C74.521 9.02119 73.4956 8.59897 72.3495 8.59897C71.2035 8.59897 70.1178 9.08151 69.3337 9.86564C67.6448 11.5545 67.6448 14.2688 69.3337 15.8974C70.1781 16.7418 71.2638 17.164 72.3495 17.164ZM71.0225 11.5545C71.3844 11.1926 71.867 11.0117 72.3495 11.0117C72.8321 11.0117 73.3146 11.1926 73.6765 11.5545C74.4003 12.2783 74.4003 13.4244 73.6765 14.1482C72.9527 14.872 71.8067 14.872 71.0829 14.1482C70.3591 13.4244 70.3591 12.2783 71.0829 11.5545H71.0225Z" fill="white"/>
<path fill-rule="evenodd" clip-rule="evenodd" d="M73.5532 3.8311C77.7754 2.86602 81.0928 2.68507 81.2738 2.68507H81.2135C81.2135 2.68507 82.4243 2.63003 82.4801 2.6251V3.89142C82.4769 3.92044 82.4721 3.98655 82.4649 4.08663C82.3369 5.85829 81.4393 18.2776 74.7595 24.1581C74.096 24.7613 73.4325 25.3041 72.8294 25.7867C72.5278 26.8121 71.804 29.647 71.5024 30.974C71.3817 31.7581 70.9595 32.4216 70.296 32.8438C68.9087 33.8089 66.1341 35.4375 66.0135 35.4978L62.8167 37.3676L64.3246 33.9898C64.9881 32.5422 65.4706 30.4311 65.1087 29.8279C65.1087 29.7676 65.1087 29.7073 64.9278 29.7073C63.9627 29.647 63.058 29.466 62.0929 28.9835C61.3087 29.8883 60.223 30.4311 59.0167 30.3708H54.8548V26.2089C54.7945 25.0025 55.277 23.8565 56.2421 23.1327C55.7595 22.2279 55.5183 21.2629 55.5183 20.2978C55.458 20.0565 55.3976 20.0565 55.3976 20.0565C54.7945 19.6946 52.7437 20.1771 51.2357 20.8406L47.7977 22.3486L49.6675 19.1517C49.7278 19.0311 51.3564 16.2565 52.3215 14.8692C52.804 14.266 53.4072 13.8438 54.1913 13.6628C55.5183 13.4216 58.3532 12.6375 59.3786 12.3359C59.8611 11.7327 60.404 11.0692 61.0072 10.4057C63.6008 7.38983 67.8833 5.15809 73.5532 3.8311ZM53.4675 17.6438C54.3722 17.4629 55.277 17.4629 56.0611 17.7041V17.6438C56.3627 16.92 56.7246 16.1962 57.2675 15.3517C56.3627 15.593 55.3976 15.8343 54.7945 15.9549C54.6135 16.0152 54.4929 16.0755 54.4326 16.1962C54.2355 16.4326 54.0385 16.7463 53.8247 17.0867L53.8242 17.0874L53.8237 17.0883C53.7105 17.2685 53.5926 17.4561 53.4675 17.6438ZM59.077 27.9581C59.4992 28.0184 59.9214 27.8375 60.1627 27.4756V27.5359L64.023 22.7105C64.204 22.4692 64.3246 22.1676 64.4452 21.8057L64.7468 20.539L63.4802 20.8406C63.1786 20.9009 62.8167 21.0216 62.5754 21.2629L57.75 25.0629C57.4484 25.3041 57.2675 25.7263 57.2675 26.1486V26.5708L61.1881 24.0375L58.6548 27.9581H59.077ZM68.9691 30.9136C69.0897 30.793 69.2103 30.6724 69.2103 30.5517L69.15 30.6121C69.2706 29.9486 69.5119 29.0438 69.7532 28.139C68.969 28.6216 68.1849 28.9835 67.4611 29.2851C67.7024 30.0692 67.7024 30.974 67.5214 31.8787C67.7096 31.7533 67.8906 31.635 68.0643 31.5216C68.3916 31.3077 68.6932 31.1107 68.9691 30.9136ZM65.0484 27.2946C66.677 27.2343 69.0294 26.0883 73.1913 22.4089L73.2516 22.4692C78.3182 18.0057 79.6452 8.77713 80.0071 5.27872C76.5087 5.58031 67.2802 6.96761 62.8167 12.0343C59.077 16.1962 57.931 18.5486 57.931 20.2375C57.931 20.7803 57.9913 21.2025 58.1722 21.6248L61.0072 19.393C61.4897 18.9708 62.1532 18.6692 62.8167 18.4882L67.9437 17.2819L66.7373 22.4089C66.5564 23.0724 66.2548 23.6756 65.8325 24.2184L63.6008 27.0533C64.023 27.174 64.4452 27.2946 64.9881 27.2946H65.0484Z" fill="white"/>
<path d="M82.4801 2.6251C82.4828 2.6251 82.4828 2.62487 82.4801 2.6251Z" fill="white"/>
<path d="M49.6693 36.823C51.2376 36.823 52.8058 36.7024 54.3741 36.4008V36.3405C55.9423 36.0389 57.4502 35.6167 58.8979 34.8929C60.3455 34.2294 61.7328 33.3246 62.8788 32.1183C62.5772 32.9024 62.0344 33.6262 61.4915 34.2897C60.9487 34.9532 60.2852 35.4961 59.5613 36.0389C58.1137 37.0643 56.5455 37.8484 54.8566 38.331C54.0725 38.5722 53.1677 38.8135 52.3233 38.9342C51.4788 39.0548 50.6344 39.1754 49.7296 39.1754C47.9804 39.2357 46.2312 39.1151 44.5423 38.8738L42.3709 38.5722L43.7582 36.9437C44.6026 35.9786 45.3264 34.9532 45.9296 33.8675C46.5328 32.7818 47.0757 31.5754 47.5582 30.3691C48.0407 29.1024 48.6439 27.8357 49.3677 26.6897C49.4696 26.5368 49.5715 26.3792 49.6748 26.2195C49.9381 25.8121 50.2106 25.3906 50.5137 25.0008C50.936 24.458 51.3582 23.9151 51.8407 23.4326C51.2979 24.6992 50.8153 25.9056 50.3931 27.1722C49.9106 28.3786 49.5487 29.6453 49.2471 30.9119C48.9455 32.2389 48.5233 33.5056 47.9201 34.8326C47.6185 35.4961 47.2566 36.0992 46.8947 36.7024C47.8598 36.823 48.7645 36.823 49.6693 36.823Z" fill="white"/>
<path d="M25.9073 57.7547C26.9327 57.7547 27.8978 57.2119 28.8025 56.2468V56.3071L28.9232 56.1865L30.1898 57.3325L30.0692 57.4531C29.9486 57.5824 29.8366 57.7153 29.7245 57.8483C29.0524 58.6459 28.3803 59.4436 25.847 59.4436C22.8914 59.4436 20.5391 57.0309 20.5391 54.015C20.5391 50.9992 23.7962 48.5865 25.9073 48.5865C28.0184 48.5865 29.2248 49.6119 30.0089 50.4563L30.1295 50.5769L28.9232 51.8436L28.8025 51.723C28.7329 51.6464 28.6657 51.5682 28.5984 51.4898C28.0818 50.8889 27.5544 50.2754 25.847 50.2754C23.9168 50.2754 22.4089 51.9039 22.4089 54.015C22.4089 56.1262 23.9168 57.7547 25.9073 57.7547Z" fill="white"/>
<path d="M36.4944 48.5264C35.1798 48.5343 34.0448 49.0767 33.2664 50.0946V44.4248L31.4568 45.3295V59.1422H33.2664V53.1708C33.2664 51.4216 34.4124 50.2152 36.1013 50.2152C37.7902 50.2152 38.6949 51.3009 38.6949 53.1105V59.2025H40.5044V52.7486C40.5044 50.1659 38.9494 48.5401 36.4944 48.5264Z" fill="white"/>
<path d="M36.4944 48.5264L36.4632 48.5263H36.5235L36.4944 48.5264Z" fill="white"/>
<path fill-rule="evenodd" clip-rule="evenodd" d="M42.919 49.4912C43.9444 49.0087 45.0904 48.5865 46.6587 48.5865V48.7674C48.1063 48.7674 49.2523 49.1896 50.0364 49.9135C50.7602 50.6373 51.1221 51.6627 51.1221 52.9896V59.323H49.3126V58.1166C48.6491 58.8404 47.8047 59.5642 45.8745 59.5642C43.9444 59.5642 41.9539 58.4182 41.9539 56.1865C41.9539 53.9547 43.6428 52.6881 46.4174 52.6881C47.6841 52.6881 48.5285 52.869 49.3126 53.05V52.9293C49.3126 51.2404 48.3475 50.3357 46.538 50.3357C45.5729 50.3357 44.6682 50.5769 43.5825 51.1198H43.4015C43.4015 51.1198 42.7983 49.5515 42.7983 49.4912H42.919ZM49.3126 55.2817V54.4976H49.3729C49.3275 54.4811 49.2835 54.4648 49.2403 54.4489C48.6534 54.2324 48.2277 54.0754 46.5983 54.0754C44.8491 54.0754 43.8237 54.6785 43.8237 55.9452C43.8237 57.2119 44.3666 57.815 46.1761 57.815C47.9856 57.815 49.3126 56.7293 49.3126 55.2817Z" fill="white"/>
<path d="M58.3899 48.5256C57.0753 48.5335 55.9403 49.0759 55.1619 50.0938V48.7065H53.3523V59.1414H55.1619V53.17C55.1619 51.4208 56.3079 50.2144 57.9968 50.2144C59.6857 50.2144 60.5904 51.3001 60.5904 53.1097V59.2017H62.3999V52.7478C62.3999 50.165 60.8449 48.5393 58.3899 48.5256Z" fill="white"/>
<path d="M58.3899 48.5256L58.3587 48.5255H58.419L58.3899 48.5256Z" fill="white"/>
<path fill-rule="evenodd" clip-rule="evenodd" d="M68.7912 48.5255C70.2991 48.5255 71.5658 49.0684 72.5309 50.2144V48.8874H74.3404V57.3922C74.3404 58.9605 73.8578 60.1668 73.0134 61.0716C72.1086 61.9763 70.7816 62.4589 69.0928 62.4589C67.4039 62.4589 65.7753 61.9763 64.4483 61.0112L64.3277 60.8906L65.1721 59.3827L65.3531 59.5033C65.4252 59.5565 65.4945 59.608 65.5616 59.6578C66.5592 60.3992 67.058 60.77 69.0928 60.77C71.2642 60.77 72.5309 59.5033 72.5309 57.3319V56.6081C71.5055 57.8144 70.0578 58.4176 68.7912 58.4176C67.5245 58.4176 66.3182 57.9351 65.4134 57.0906C64.4483 56.1858 63.9055 54.9192 63.9055 53.4716C63.9055 52.0239 64.4483 50.7573 65.4134 49.8525C66.3182 49.0081 67.2832 48.5255 68.7912 48.5255ZM69.0928 56.6684C70.7816 56.6684 72.5912 55.462 72.5912 53.4112C72.5912 51.3604 70.842 50.1541 69.0928 50.1541C67.1626 50.1541 65.7753 51.6017 65.7753 53.4112C65.7753 55.2208 67.4039 56.6684 69.0928 56.6684Z" fill="white"/>
<path fill-rule="evenodd" clip-rule="evenodd" d="M81.0991 48.5259C78.2642 48.5259 76.0928 50.8782 76.0928 53.9544C76.0928 57.0306 78.3245 59.383 81.2801 59.383C83.8971 59.383 84.2914 58.9101 85.1849 57.8387C85.3005 57.7001 85.4244 57.5514 85.5626 57.3925L85.6832 57.2719L84.4769 56.1862L84.3563 56.3068C83.4515 57.2719 82.4864 57.6941 81.3404 57.6941C79.5912 57.6941 78.2642 56.4878 78.0229 54.6782H85.9245V53.9544C85.9245 50.637 83.934 48.4052 81.0388 48.4052L81.0991 48.5259ZM84.0547 53.1703H77.9626C78.2642 51.3608 79.4705 50.0941 81.0388 50.0941C82.6071 50.0941 83.8134 51.602 84.0547 53.1703Z" fill="white"/>
<path d="M89.4828 59.2014H87.6732V46.0522L89.4828 45.1474V59.2014Z" fill="white"/>
<path d="M91.8951 59.2024H93.7046V44.4849L91.8951 45.3897V59.2024Z" fill="white"/>
<path d="M100.401 56.8498L103.537 48.7069L103.477 48.6466H105.407L101.124 59.3228C100.28 61.4339 99.2545 62.2784 97.626 62.2784C96.7815 62.2784 96.1783 62.0974 95.3942 61.6752H95.2736L95.9371 60.1673L96.118 60.2879C96.6006 60.5292 96.9022 60.6498 97.626 60.6498C98.3498 60.6498 98.8926 60.4085 99.4958 58.9609L94.8514 48.7069H96.8418L100.401 56.8498Z" fill="white"/>
</g>
<defs>
<clipPath id="clip0_2570_18249">
<rect width="84.9269" height="60.8" fill="white" transform="translate(20.5391 1.60156)"/>
</clipPath>
</defs>
</svg>
