<svg width="225" height="64" viewBox="0 0 225 64" fill="none" xmlns="http://www.w3.org/2000/svg">
<path d="M50.4022 19.7907C50.4022 22.312 48.3586 24.3822 45.8107 24.3822C43.2629 24.3822 41.2193 22.312 41.2193 19.7907C41.2193 17.2694 43.2629 15.1992 45.8107 15.1992C48.3321 15.1992 50.4022 17.2428 50.4022 19.7907Z" fill="white"/>
<path d="M20.4648 33.8836C20.4648 40.0941 25.4809 45.1102 31.6913 45.1102C37.9018 45.1102 42.9179 40.0941 42.9179 33.8836C42.9179 27.6732 37.9018 22.6571 31.6913 22.6571C25.4809 22.6571 20.4648 27.6732 20.4648 33.8836Z" fill="white"/>
<path d="M185.598 26.9033L192.525 42.8009L189.605 48.7991H194.223L204.999 26.9033H200.434L194.966 38.2891L190.242 26.9033H185.598Z" fill="white"/>
<path fill-rule="evenodd" clip-rule="evenodd" d="M168.957 42.2436C169.594 42.6152 170.284 42.8806 171.001 43.0663C171.77 43.2787 172.54 43.3583 173.31 43.3583C173.92 43.3848 174.557 43.3052 175.167 43.199C175.725 43.1194 176.256 42.9602 176.76 42.7213C177.636 42.3232 178.405 41.7393 178.989 40.9962V42.9071H183.395V26.9298H178.989V28.8407C178.83 28.6019 178.618 28.3896 178.405 28.1773C178.193 27.965 177.928 27.7526 177.662 27.5933C177.37 27.4075 177.078 27.2483 176.76 27.1156C176.441 26.9564 176.096 26.8502 175.751 26.744C175.38 26.6379 175.008 26.5582 174.61 26.5052C174.185 26.4521 173.761 26.4255 173.336 26.4255C172.54 26.4255 171.77 26.5317 171.001 26.7175C170.284 26.9033 169.594 27.1952 168.957 27.5402C167.71 28.2568 166.675 29.2654 165.985 30.5128C165.613 31.1497 165.348 31.8398 165.162 32.5564C164.79 34.0957 164.79 35.6881 165.162 37.2275C165.348 37.9441 165.613 38.6341 165.985 39.2711C166.675 40.5185 167.71 41.5535 168.957 42.2436ZM176.866 39.0587C176.494 39.2711 176.096 39.4038 175.698 39.5099C175.247 39.6161 174.822 39.6692 174.398 39.6426C173.947 39.6692 173.522 39.6161 173.097 39.5099C172.673 39.4038 172.301 39.2445 171.93 39.0587C171.584 38.873 171.239 38.6341 170.948 38.3687C170.656 38.1033 170.39 37.7848 170.178 37.4398C169.966 37.0682 169.78 36.6701 169.674 36.272C169.541 35.8208 169.488 35.3431 169.488 34.8919C169.488 34.4407 169.541 33.963 169.674 33.5118C169.78 33.1137 169.966 32.7156 170.178 32.344C170.39 31.999 170.656 31.6805 170.948 31.4151C171.239 31.1497 171.558 30.9109 171.93 30.7251C172.301 30.5393 172.699 30.3801 173.097 30.3004C173.522 30.2208 173.973 30.1677 174.398 30.1677C174.822 30.1412 175.274 30.1943 175.698 30.3004C176.096 30.4066 176.494 30.5393 176.866 30.7251C177.211 30.9109 177.556 31.1497 177.848 31.4151C178.14 31.6805 178.405 31.999 178.618 32.344C178.83 32.7156 179.016 33.1137 179.122 33.5118C179.255 33.963 179.308 34.4142 179.308 34.8919C179.308 35.3696 179.255 35.8208 179.122 36.272C179.016 36.6701 178.83 37.0682 178.618 37.4398C178.405 37.7848 178.14 38.1033 177.848 38.3687C177.556 38.6341 177.211 38.873 176.866 39.0587Z" fill="white"/>
<path fill-rule="evenodd" clip-rule="evenodd" d="M155.475 20.3478H146.132L146.159 42.9071H150.724V34.7061H155.475C156.749 34.7327 158.049 34.5469 159.27 34.1753C160.252 33.8834 161.154 33.3791 161.924 32.6891C162.614 32.0521 163.145 31.2824 163.49 30.4066C163.835 29.5042 163.994 28.5222 163.994 27.5402C164.021 26.5582 163.835 25.5763 163.49 24.6473C163.145 23.7715 162.614 23.0018 161.924 22.3649C161.154 21.7014 160.252 21.1706 159.27 20.8786C158.049 20.507 156.775 20.3213 155.475 20.3478ZM156.908 30.7516C156.297 30.9109 155.66 30.9639 155.023 30.9639H150.697V24.1165H155.023C155.66 24.09 156.297 24.1696 156.908 24.3289C157.386 24.435 157.837 24.6739 158.208 24.9658C158.553 25.2578 158.819 25.6028 158.978 26.0274C159.137 26.5052 159.217 27.0094 159.217 27.5137C159.243 28.018 159.137 28.5222 158.978 29C158.819 29.4246 158.553 29.7962 158.208 30.0881C157.837 30.4066 157.386 30.6189 156.908 30.7516Z" fill="white"/>
<path d="M130.951 26.9033H126.572L126.599 42.9071H130.951V34.3876C130.951 33.7772 131.031 33.1403 131.217 32.5564C131.376 32.0786 131.615 31.6275 131.96 31.2293C132.278 30.8843 132.703 30.5924 133.154 30.4331C134.216 30.0881 135.357 30.0881 136.392 30.4331C136.843 30.5924 137.268 30.8843 137.587 31.2293C137.932 31.6275 138.17 32.0786 138.33 32.5564C138.515 33.1403 138.595 33.7772 138.595 34.3876V42.9071H142.974V33.2464C142.974 32.2644 142.841 31.309 142.523 30.3801C142.258 29.5838 141.833 28.8407 141.249 28.2303C140.665 27.6464 139.949 27.1952 139.179 26.9033C138.33 26.5848 137.401 26.4255 136.472 26.4521C135.861 26.4521 135.278 26.5052 134.694 26.6113C134.163 26.7175 133.632 26.8767 133.154 27.0891C132.703 27.2748 132.278 27.5402 131.907 27.8322C131.535 28.0976 131.217 28.4426 130.951 28.8142V26.9033Z" fill="white"/>
<path fill-rule="evenodd" clip-rule="evenodd" d="M109.56 42.2436C110.277 42.6152 111.046 42.8806 111.843 43.0663C113.541 43.4644 115.319 43.4644 117.018 43.0929C117.788 42.9071 118.557 42.6417 119.274 42.2701C119.964 41.9251 120.601 41.5005 121.158 40.9962C122.273 40.0142 123.096 38.7137 123.494 37.254C123.918 35.7412 123.918 34.1222 123.494 32.5829C123.308 31.8663 122.989 31.1763 122.591 30.5393C122.193 29.9023 121.715 29.345 121.158 28.8407C120.574 28.3099 119.964 27.8853 119.274 27.5402C118.557 27.1687 117.814 26.9033 117.018 26.7175C115.319 26.3194 113.541 26.3194 111.843 26.7175C111.046 26.9033 110.277 27.1687 109.56 27.5402C108.207 28.2037 107.065 29.2388 106.269 30.5128C105.871 31.1497 105.579 31.8398 105.367 32.5564C104.942 34.0692 104.942 35.6881 105.367 37.2275C105.579 37.9441 105.871 38.6341 106.269 39.2711C106.641 39.908 107.118 40.4654 107.676 40.9696C108.26 41.4739 108.87 41.8986 109.56 42.2436ZM116.991 39.0057C116.62 39.218 116.222 39.3507 115.797 39.4569C115.346 39.5896 114.895 39.6426 114.417 39.6426C113.939 39.6426 113.488 39.5896 113.037 39.4834C112.612 39.3772 112.214 39.218 111.843 39.0322C111.471 38.8464 111.152 38.6076 110.861 38.3156C110.569 38.0237 110.303 37.7052 110.117 37.3602C109.932 37.0151 109.772 36.617 109.666 36.2189C109.321 34.9185 109.48 33.5649 110.117 32.3971C110.33 32.0521 110.569 31.7336 110.861 31.4417C111.152 31.1497 111.471 30.9109 111.843 30.7251C112.214 30.5128 112.612 30.3801 113.037 30.2739C113.488 30.1677 113.966 30.1147 114.417 30.1147C114.868 30.1147 115.346 30.1677 115.797 30.2739C116.195 30.3801 116.62 30.5128 116.991 30.7251C117.336 30.9109 117.681 31.1497 117.973 31.4417C118.557 31.999 118.982 32.7421 119.168 33.5384C119.38 34.4142 119.38 35.3166 119.168 36.1924C119.088 36.5905 118.929 36.9621 118.716 37.3336C118.504 37.6787 118.265 37.9971 117.973 38.2891C117.681 38.581 117.363 38.8199 116.991 39.0057Z" fill="white"/>
<path fill-rule="evenodd" clip-rule="evenodd" d="M88.5402 42.2436C89.2568 42.6152 90.0265 42.8806 90.8227 43.0663C92.5478 43.4644 94.326 43.4644 95.998 43.0663C96.7677 42.8806 97.5373 42.6152 98.2539 42.2436C98.944 41.8986 99.5809 41.4739 100.138 40.9696C101.253 39.9877 102.076 38.6872 102.474 37.2275C102.898 35.7147 102.898 34.0957 102.474 32.5564C102.288 31.8398 101.97 31.1497 101.571 30.5128C101.173 29.8758 100.696 29.3184 100.138 28.8142C99.5544 28.2834 98.944 27.8587 98.2539 27.5137C97.5373 27.1421 96.7942 26.8767 95.998 26.6909C94.2994 26.3194 92.5212 26.3194 90.8227 26.6909C90.0265 26.8767 89.2568 27.1421 88.5402 27.5137C87.8502 27.8587 87.2132 28.3099 86.6559 28.8142C86.1251 29.3184 85.6473 29.8758 85.2492 30.5128C84.8511 31.1497 84.5592 31.8398 84.3469 32.5564C83.9222 34.0692 83.9222 35.6881 84.3469 37.2275C84.5592 37.9441 84.8511 38.6341 85.2492 39.2711C85.6208 39.908 86.0985 40.4654 86.6559 40.9696C87.2397 41.4739 87.8502 41.8986 88.5402 42.2436ZM95.998 39.0057C95.6264 39.218 95.2283 39.3507 94.8037 39.4569C94.3525 39.563 93.8748 39.6161 93.4236 39.6161C92.9459 39.6161 92.4947 39.563 92.0435 39.4569C91.6189 39.3507 91.2208 39.1914 90.8492 39.0057C90.4776 38.8199 90.1592 38.581 89.8672 38.2891C89.5753 37.9971 89.3099 37.6787 89.1241 37.3336C88.9383 36.9886 88.7791 36.5905 88.6729 36.1924C88.5668 35.7677 88.5137 35.3166 88.5137 34.8654C88.4871 34.4142 88.5668 33.963 88.6729 33.5384C88.7791 33.1402 88.9383 32.7687 89.1241 32.3971C89.3364 32.0521 89.5753 31.7071 89.8672 31.4417C90.1592 31.1497 90.5042 30.9109 90.8492 30.7251C91.2208 30.5128 91.6189 30.3801 92.0435 30.2739C92.4947 30.1677 92.9724 30.1147 93.4236 30.1147C93.8748 30.1147 94.3525 30.1677 94.8037 30.2739C95.2018 30.3801 95.6264 30.5128 95.998 30.7251C96.343 30.9109 96.6881 31.1497 96.98 31.4417C97.5639 31.999 97.9885 32.7421 98.1743 33.5384C98.3866 34.4142 98.3866 35.3166 98.1743 36.1924C98.0947 36.5905 97.9354 36.9621 97.7231 37.3336C97.5108 37.6787 97.2719 37.9971 96.98 38.2891C96.6881 38.581 96.3696 38.8199 95.998 39.0057Z" fill="white"/>
<path d="M60.9384 20.3478H56.3204V42.9071H60.8853V27.4341L67.4142 37.4132H70.2009L76.7298 27.4341V42.9071H81.2947V20.3478H76.7033L68.7943 32.3706L60.9384 20.3478Z" fill="white"/>
</svg>
