<svg width="242" height="64" viewBox="0 0 242 64" fill="none" xmlns="http://www.w3.org/2000/svg">
<path d="M43.2186 9.67884C43.1141 9.57432 43.0176 9.57432 42.9131 9.57432C42.8086 9.57432 42.704 9.57432 42.6076 9.67884L23.7695 20.5331C23.5685 20.6296 23.464 20.9432 23.464 21.1442V42.8527C23.464 43.1582 23.5685 43.3592 23.7695 43.4638L26.6258 45.1095L35.742 20.1239C35.8466 19.8104 36.2566 19.6094 36.5621 19.6094H41.2737C41.5792 19.6094 41.7882 19.9149 41.6837 20.2204L30.4195 51.0466L25.5069 48.1762L22.1293 46.2296C20.8992 45.514 20.1836 44.1874 20.1836 42.8527V21.1442C20.1836 19.713 20.8992 18.4829 22.1293 17.7673L40.9674 6.91301C41.5784 6.59944 42.1975 6.39844 42.9131 6.39844H43.0096C43.7251 6.39844 44.3442 6.60748 44.9553 6.91301L63.6969 17.7673C64.927 18.4829 65.6426 19.8095 65.6426 21.1442V42.8527C65.6426 44.2839 64.927 45.514 63.6969 46.2296L53.0579 52.3596L48.6472 54.9368L48.6363 54.9073L44.8588 57.0839C44.2478 57.3974 43.6287 57.5984 42.9131 57.5984C42.1975 57.5984 41.5784 57.3894 40.9674 57.0839L34.9406 53.6113L34.9527 53.5796L32.3656 52.0681L44.0319 20.1243C44.1364 19.8108 44.5464 19.6098 44.852 19.6098H49.668L49.5635 19.5133C49.869 19.5133 50.0781 19.8188 49.9735 20.1243L38.3905 51.8882L42.6076 54.318C42.7121 54.4226 42.8086 54.4226 42.9131 54.4226C43.0176 54.4226 43.1141 54.4226 43.2186 54.318L47.5084 51.8463L44.3457 43.2624C44.2412 43.0614 44.2412 42.8524 44.3457 42.6514L46.806 35.8896C47.007 35.4795 47.5215 35.4795 47.618 35.8896L52.436 49.0071L54.3034 47.9311L48.438 31.7976C48.3334 31.5966 48.3334 31.3875 48.438 31.1865L50.8982 24.4247C51.1073 24.0147 51.6138 24.0147 51.7183 24.4247L59.2284 45.0934L62.0567 43.4638C62.2577 43.3673 62.3622 43.0537 62.3622 42.8527V21.1442C62.3622 20.8386 62.2577 20.6376 62.0567 20.5331L43.2186 9.67884Z" fill="white"/>
<path fill-rule="evenodd" clip-rule="evenodd" d="M85.9195 25.4469C86.4341 25.4469 86.8442 25.5514 87.1497 25.7524C87.4552 25.9534 87.7607 26.3635 88.0743 26.878L94.3215 38.1424C94.426 38.2469 94.426 38.3434 94.3215 38.4479C94.3215 38.5524 94.217 38.5524 94.016 38.5524H91.6602C91.4672 38.5524 91.3632 38.456 91.2627 38.363L91.2502 38.3514L89.9075 35.8911H81.1035L79.7688 38.3514C79.6643 38.5524 79.5678 38.5524 79.3588 38.5524H76.8985C76.6975 38.5524 76.593 38.5524 76.593 38.4479V38.1424L82.7356 26.878C83.0412 26.267 83.3467 25.9534 83.6603 25.7524C83.9738 25.5514 84.2713 25.4469 84.6814 25.4469H85.9195ZM82.2291 33.7444H88.6773L85.7105 28.2127C85.6486 28.1508 85.6234 28.1256 85.593 28.1153C85.5722 28.1082 85.5488 28.1082 85.5095 28.1082H85.405C85.3004 28.1082 85.204 28.1082 85.204 28.2127L82.2291 33.7444Z" fill="white"/>
<path fill-rule="evenodd" clip-rule="evenodd" d="M107.934 25.4469C109.365 25.4469 110.394 25.7524 111.005 26.468C111.616 27.079 111.93 28.1082 111.93 29.3383V30.3594C111.93 31.4851 111.729 32.3052 111.319 32.9162C110.909 33.5273 110.193 33.9373 109.172 34.1464L112.348 38.1424C112.452 38.2469 112.452 38.3434 112.452 38.4479C112.452 38.5524 112.348 38.6489 112.147 38.6489H109.687C109.486 38.6489 109.381 38.6489 109.381 38.5444C109.316 38.5444 109.291 38.5038 109.259 38.4498C109.239 38.4172 109.216 38.3797 109.18 38.3434L106.213 34.4519H100.175V38.2388C100.175 38.5444 100.07 38.6489 99.765 38.6489H97.7147C97.4092 38.6489 97.3047 38.5444 97.3047 38.2388V26.0579C97.3047 25.6479 97.5057 25.4469 97.9157 25.4469H107.934ZM100.151 32.2006H107.315C107.926 32.2006 108.44 32.0961 108.649 31.7906C108.955 31.4851 109.059 31.075 109.059 30.5604V29.7403C109.059 29.1293 108.955 28.7192 108.649 28.5102C108.344 28.2047 107.934 28.1001 107.315 28.1001H100.352C100.151 28.1001 100.151 28.2047 100.151 28.3011V32.2006Z" fill="white"/>
<path fill-rule="evenodd" clip-rule="evenodd" d="M130.461 26.267C129.947 25.7524 129.03 25.4469 127.696 25.4469V25.4549H116.954C116.544 25.4549 116.343 25.6559 116.343 26.066V38.0459C116.343 38.4559 116.544 38.6569 116.954 38.6569H128.114C128.725 38.6569 129.239 38.5604 129.649 38.4559C130.059 38.3594 130.365 38.1504 130.671 37.8449C130.88 37.5393 131.089 37.2338 131.185 36.8238L131.202 36.7517C131.293 36.3653 131.386 35.9735 131.386 35.4891V34.3635C131.386 33.2378 130.872 32.4177 130.051 31.9032C130.872 31.3886 131.282 30.5685 131.282 29.5474V28.6228C131.282 27.6016 130.976 26.7815 130.461 26.267ZM126.876 30.874H119.205V28.2127C119.205 28.1162 119.205 28.0117 119.406 28.0117H127.085C127.495 28.0117 127.905 28.1162 128.106 28.3172C128.307 28.4218 128.411 28.7273 128.411 29.1373V29.7484C128.411 30.1584 128.315 30.3675 128.106 30.5685C127.897 30.7695 127.487 30.874 126.876 30.874ZM119.197 35.6901V32.9243L119.093 32.8197H126.763C127.487 32.8197 127.897 32.9162 128.098 33.1253C128.299 33.3343 128.403 33.6398 128.403 34.0499V34.7655C128.403 35.071 128.299 35.3846 128.098 35.5856C127.897 35.7866 127.591 35.8911 127.077 35.8911H119.398C119.302 35.8911 119.197 35.8911 119.197 35.6901Z" fill="white"/>
<path d="M138.342 25.4469C138.647 25.4469 138.752 25.5514 138.752 25.8569V38.1424C138.752 38.4479 138.647 38.5524 138.342 38.5524H136.291C135.986 38.5524 135.881 38.4479 135.881 38.1424V25.8569C135.881 25.5514 135.986 25.4469 136.291 25.4469H138.342Z" fill="white"/>
<path d="M158.514 25.8569C158.514 25.5514 158.409 25.4469 158.104 25.4469H143.35C143.044 25.4469 142.94 25.5514 142.94 25.8569V27.6981C142.94 28.0037 143.044 28.1082 143.35 28.1082H149.292V38.1424C149.292 38.4479 149.396 38.5524 149.702 38.5524H151.752C152.057 38.5524 152.162 38.4479 152.162 38.1424V28.1082H158.104C158.409 28.1082 158.514 28.0037 158.514 27.6981V25.8569Z" fill="white"/>
<path fill-rule="evenodd" clip-rule="evenodd" d="M172.954 25.4469C174.385 25.4469 175.414 25.7524 176.025 26.468C176.636 27.079 176.95 28.1082 176.95 29.3383V30.3594C176.95 31.4851 176.749 32.3052 176.339 32.9162C175.929 33.5273 175.213 33.9373 174.192 34.1464L177.368 38.1424C177.473 38.2469 177.473 38.3434 177.473 38.4479C177.473 38.5524 177.368 38.6489 177.167 38.6489H174.707C174.506 38.6489 174.401 38.6489 174.401 38.5444C174.336 38.5444 174.312 38.5038 174.279 38.4498C174.259 38.4172 174.237 38.3797 174.2 38.3434L171.233 34.4519H165.195V38.2388C165.195 38.5444 165.091 38.6489 164.785 38.6489H162.735C162.43 38.6489 162.325 38.5444 162.325 38.2388V26.0579C162.325 25.6479 162.526 25.4469 162.936 25.4469H172.954ZM165.171 32.2006H172.335C172.946 32.2006 173.461 32.0961 173.67 31.7906C173.975 31.4851 174.08 31.075 174.08 30.5604V29.7403C174.08 29.1293 173.975 28.7192 173.67 28.5102C173.364 28.2047 172.954 28.1001 172.335 28.1001H165.372C165.171 28.1001 165.171 28.2047 165.171 28.3011V32.2006Z" fill="white"/>
<path d="M183.913 25.8569C183.913 25.5514 183.808 25.4469 183.503 25.4469H181.251C180.946 25.4469 180.841 25.5514 180.841 25.8569V33.6398C180.841 34.4599 180.946 35.28 181.147 35.8911C181.356 36.5022 181.662 37.0167 182.072 37.4268C182.482 37.7323 183.101 38.0459 183.712 38.2469C184.427 38.4479 185.247 38.5524 186.172 38.5524H191.599C192.628 38.5524 193.344 38.4479 194.059 38.2469C194.775 38.1424 195.29 37.8368 195.7 37.4268C196.11 37.0167 196.423 36.5022 196.624 35.8911C196.825 35.28 196.93 34.5645 196.93 33.6398V25.8569C196.93 25.5514 196.825 25.4469 196.52 25.4469H194.469C194.164 25.4469 194.059 25.5514 194.059 25.8569V33.3343C194.059 33.8488 194.059 34.259 193.955 34.5645L193.949 34.5826C193.846 34.8823 193.742 35.1876 193.545 35.3846C193.445 35.5847 193.16 35.6817 192.868 35.7813L192.829 35.7946C192.524 35.8991 192.114 35.8991 191.599 35.8991H186.373C185.858 35.8991 185.448 35.8991 185.143 35.7946C184.837 35.6901 184.636 35.5936 184.427 35.3846C184.229 35.1865 184.132 34.9018 184.034 34.6126L184.017 34.5645C183.913 34.2589 183.913 33.8489 183.913 33.3343V25.8569Z" fill="white"/>
<path d="M205.003 25.4469C205.309 25.4469 205.518 25.4469 205.719 25.5514C205.92 25.5514 206.129 25.6559 206.233 25.7524C206.265 25.7842 206.306 25.8153 206.35 25.8491C206.451 25.9261 206.571 26.0171 206.643 26.1625C206.66 26.1948 206.677 26.2273 206.694 26.2604C206.782 26.4331 206.878 26.6218 207.053 26.878L210.945 35.8911C210.972 35.9188 210.993 35.9459 211.011 35.9708C211.063 36.04 211.103 36.0921 211.25 36.0921H211.451C211.543 36.0921 211.629 36.0116 211.719 35.9266C211.731 35.9149 211.744 35.9028 211.757 35.8911L215.648 26.878C215.753 26.5725 215.849 26.3635 216.058 26.1625C216.163 25.9614 216.259 25.8569 216.468 25.7524C216.573 25.6479 216.774 25.5514 216.983 25.5514C217.078 25.5514 217.171 25.53 217.272 25.5065C217.395 25.4782 217.531 25.4469 217.698 25.4469H219.749C220.36 25.4469 220.874 25.5514 221.083 25.8569C221.284 26.1625 221.389 26.677 221.389 27.3926V38.1424C221.389 38.4479 221.284 38.5524 220.979 38.5524H219.033C218.728 38.5524 218.623 38.4479 218.623 38.1424V28.3172C218.623 28.2127 218.519 28.1162 218.519 28.1162H218.318C218.213 28.1162 218.117 28.2207 218.117 28.2207L214.33 36.6147C214.225 36.9202 214.024 37.2258 213.815 37.4348C213.714 37.5364 213.639 37.6361 213.564 37.7347C213.486 37.8391 213.408 37.9426 213.301 38.0459C213.237 38.0791 213.172 38.122 213.107 38.1652C212.967 38.2578 212.827 38.3514 212.689 38.3514C212.488 38.4559 212.175 38.4559 211.869 38.4559H210.945C210.639 38.4559 210.334 38.4559 210.125 38.3514C210.054 38.3163 209.985 38.2821 209.916 38.2482C209.781 38.1812 209.647 38.1152 209.514 38.0459C209.349 37.9601 209.249 37.8095 209.103 37.5895C209.071 37.5413 209.037 37.4896 208.999 37.4348C208.88 37.3161 208.795 37.1581 208.702 36.9857C208.638 36.8662 208.57 36.7398 208.484 36.6147L204.698 28.2207C204.698 28.1162 204.593 28.1162 204.497 28.1162H204.296C204.191 28.1162 204.191 28.2207 204.191 28.3172V38.1504C204.191 38.4559 204.087 38.5604 203.781 38.5604H201.827C201.522 38.5604 201.417 38.4559 201.417 38.1504V27.3926C201.417 26.677 201.522 26.1625 201.723 25.8569C201.924 25.5514 202.438 25.4469 203.057 25.4469H205.003Z" fill="white"/>
</svg>
