<svg width="132" height="64" viewBox="0 0 132 64" fill="none" xmlns="http://www.w3.org/2000/svg">
<path d="M29.1288 13.5968C29.906 13.9478 30.598 14.4844 31.1496 15.1413L31.1345 15.1262L29.7556 16.1943C29.4447 15.733 29.0235 15.3469 28.5421 15.0711C28.0055 14.7602 27.3888 14.6047 26.762 14.6098C26.1301 14.5797 25.4833 14.695 24.8866 14.9407C24.35 15.1714 23.8686 15.5073 23.4725 15.9336C23.0763 16.3748 22.7705 16.8963 22.5749 17.4579C22.1737 18.6965 22.1737 20.0303 22.5749 21.2739C22.7655 21.8355 23.0763 22.357 23.4725 22.7983C23.8736 23.2145 24.36 23.5404 24.9016 23.756C25.4933 24.0018 26.1352 24.1121 26.777 24.082C27.3988 24.092 28.0105 23.9366 28.5521 23.6257C29.0385 23.3499 29.4547 22.9588 29.7706 22.4974L31.1496 23.5655C30.603 24.2324 29.906 24.7589 29.1288 25.1099C28.3866 25.4509 27.5893 25.6314 26.777 25.6465C25.8794 25.6766 24.9868 25.5261 24.1494 25.2002C23.3923 24.9044 22.7103 24.4581 22.1437 23.8864C21.577 23.3098 21.1458 22.6278 20.87 21.8756C20.2933 20.2359 20.2933 18.4508 20.87 16.8211C21.1458 16.079 21.582 15.392 22.1437 14.8304C22.7103 14.2537 23.3923 13.8074 24.1494 13.5116C24.9868 13.1857 25.8794 13.0352 26.777 13.0653C27.5893 13.0804 28.3866 13.2659 29.1288 13.5968Z" fill="white"/>
<path d="M36.866 25.3607H35.1762V6H36.866V15.3218H36.9262C37.1117 14.9858 37.3575 14.685 37.6333 14.4242C37.9291 14.1484 38.255 13.9128 38.6061 13.7172C38.9671 13.5216 39.3482 13.3612 39.7443 13.2609C40.1254 13.1455 40.5216 13.0954 40.9277 13.0954C42.4571 13.0954 43.6004 13.4915 44.3426 14.2838C45.1298 15.2616 45.5159 16.5002 45.4307 17.7538V25.3607H43.7559V18.7366C43.8211 17.6685 43.5754 16.6055 43.0639 15.6678C42.5975 14.9557 41.7501 14.6047 40.5065 14.6047C40.2608 14.6198 40.0251 14.6499 39.7844 14.685C39.3382 14.7953 38.927 14.9908 38.5659 15.2717C38.0795 15.6377 37.6784 16.104 37.4026 16.6556C37.0115 17.4529 36.8309 18.3355 36.866 19.213V25.3607Z" fill="white"/>
<path fill-rule="evenodd" clip-rule="evenodd" d="M55.6601 18.1148C56.5226 18.0496 57.3099 18.0145 58.027 18.0145L58.8543 18.0597V17.7488C58.8543 15.6828 57.8364 14.6449 55.7955 14.6449C54.4416 14.6298 53.1329 15.1363 52.145 16.0589L51.1171 14.8555C52.2353 13.6971 53.9252 13.1104 56.1766 13.1104C56.7382 13.1104 57.2999 13.1957 57.8414 13.3712C58.3579 13.5266 58.8343 13.7974 59.2405 14.1484C59.6466 14.5145 59.9625 14.9608 60.1882 15.4672C60.4389 16.0639 60.5542 16.7108 60.5392 17.3577V22.693C60.5241 23.1694 60.5392 23.6357 60.5843 24.1121C60.6294 24.6185 60.6746 25.0397 60.7247 25.3556H59.1301C59.075 25.0849 59.0399 24.774 59.0098 24.433C58.9897 24.087 58.9747 23.756 58.9747 23.4301H58.9145C58.5033 24.1622 57.8966 24.7589 57.1695 25.1651C56.4073 25.5412 55.5599 25.7217 54.7024 25.7016C54.1909 25.7016 53.6694 25.6314 53.173 25.486C52.6966 25.3456 52.2503 25.125 51.8592 24.8141C51.4781 24.5182 51.1622 24.1472 50.9365 23.7209C50.7009 23.2446 50.5855 22.7281 50.5906 22.1916C50.5454 21.3592 50.8162 20.5368 51.3477 19.8949C51.8692 19.3283 52.5161 18.9021 53.2382 18.6514C54.0154 18.3706 54.8328 18.185 55.6601 18.1148ZM58.8644 20.261V19.3985L57.9919 19.3785C57.5656 19.3785 57.0341 19.4035 56.3973 19.4436C55.7755 19.4888 55.1537 19.5891 54.557 19.7545C54.0004 19.9 53.4889 20.1607 53.0476 20.5117C52.6314 20.8577 52.3957 21.3792 52.4208 21.9208C52.4058 22.2718 52.496 22.6278 52.6665 22.9387C52.827 23.2095 53.0526 23.4502 53.3184 23.6307C53.5942 23.8062 53.8951 23.9416 54.221 24.0118C54.557 24.092 54.8929 24.1271 55.2339 24.1271C55.7805 24.1422 56.3321 24.0318 56.8285 23.8162C57.711 23.4351 58.3729 22.678 58.6487 21.7603C58.7942 21.2789 58.8694 20.7725 58.8644 20.261Z" fill="white"/>
<path d="M66.2406 14.7903C66.2105 14.2888 66.1804 13.8225 66.1453 13.3812L67.8853 13.3862C67.9305 13.7021 67.9505 14.0281 67.9505 14.344V15.3068H68.0057C68.1912 14.9708 68.4369 14.6699 68.7177 14.4042C69.0136 14.1334 69.3496 13.9027 69.7006 13.7172C70.0566 13.5216 70.4427 13.3612 70.8388 13.2609C71.2199 13.1455 71.6261 13.0954 72.0223 13.0954C73.5617 13.0954 74.6899 13.4915 75.422 14.2838C76.2093 15.2616 76.6054 16.5002 76.5202 17.7538V25.3607H74.8353V18.7216C74.8955 17.6535 74.6548 16.5904 74.1433 15.6528C73.682 14.9457 72.8296 14.5847 71.591 14.5847C71.3503 14.6047 71.1046 14.6398 70.8739 14.685C70.4277 14.7953 70.0165 14.9908 69.6554 15.2717C69.169 15.6377 68.7729 16.104 68.4921 16.6556C68.111 17.4529 67.9254 18.3355 67.9606 19.213V25.3607H66.2807V16.0188C66.2807 15.7482 66.2669 15.4189 66.2507 15.0336C66.2474 14.9548 66.244 14.8737 66.2406 14.7903Z" fill="white"/>
<path fill-rule="evenodd" clip-rule="evenodd" d="M84.5082 30.9116C83.5354 30.4954 82.6729 29.8736 81.9558 29.0964L83.1844 27.7626C83.6858 28.4395 84.3527 28.9861 85.1099 29.3622C85.9373 29.7733 86.8499 29.9789 87.7726 29.9639C88.5147 29.984 89.2518 29.8536 89.9438 29.5928C90.4954 29.3672 90.9919 29.0212 91.388 28.5749C91.754 28.1336 92.0248 27.6222 92.1753 27.0656C92.3407 26.4638 92.421 25.8521 92.421 25.2303V23.0941H92.3658C91.8844 23.8614 91.1924 24.4681 90.3701 24.8341C89.5928 25.1852 88.7504 25.3657 87.8979 25.3657C87.0555 25.3707 86.2281 25.2203 85.4559 24.9094C84.7238 24.6135 84.0519 24.1873 83.4802 23.6407C82.9086 23.0891 82.4573 22.4322 82.1464 21.7051C81.8255 20.9329 81.655 20.1106 81.665 19.2732C81.655 18.4358 81.8154 17.6134 82.1263 16.8412C82.4172 16.1091 82.8484 15.4321 83.39 14.8655C83.9315 14.3039 84.5784 13.8476 85.3005 13.5467C86.0727 13.2258 86.9051 13.0603 87.7425 13.0753C88.1236 13.0753 88.5047 13.1104 88.8808 13.1756C89.297 13.2458 89.6931 13.3612 90.0842 13.5266C91.0019 13.9228 91.7891 14.5646 92.3758 15.3719H92.426V13.3812H94.1158V25.2554C94.1108 25.9473 94.0306 26.6444 93.8701 27.3263C93.7047 28.0634 93.3837 28.7554 92.9224 29.3471C92.4009 30.014 91.734 30.5406 90.9668 30.8916C89.9438 31.3378 88.8256 31.5485 87.6974 31.5033C86.6092 31.5184 85.5211 31.3228 84.5082 30.9116ZM84.8091 15.9787C84.4029 16.3999 84.082 16.8963 83.8613 17.4379L83.8964 17.4329C83.4351 18.5711 83.4351 19.8498 83.8964 20.9981C84.112 21.5397 84.438 22.0311 84.8391 22.4573C85.2453 22.8735 85.7217 23.2095 86.2482 23.4502C86.7948 23.7059 87.3965 23.8363 87.9932 23.8262C89.1867 23.8262 90.3249 23.3699 91.1924 22.5576C91.6187 22.1514 91.9596 21.66 92.1753 21.1135C92.4109 20.5117 92.5213 19.8699 92.4912 19.218C92.5012 18.6163 92.3909 18.0095 92.1903 17.4379C91.9897 16.8963 91.6889 16.3999 91.2977 15.9787C90.8916 15.5525 90.4001 15.2065 89.8586 14.9758C89.2669 14.7251 88.615 14.5947 87.9732 14.6098C87.3664 14.5997 86.7647 14.7301 86.2181 14.9758C85.6866 15.2215 85.2152 15.5625 84.8091 15.9787Z" fill="white"/>
<path fill-rule="evenodd" clip-rule="evenodd" d="M110.844 19.0575V19.8097L100.9 19.8247C100.951 20.4064 101.091 20.9831 101.332 21.5196C101.788 22.5476 102.6 23.3549 103.633 23.8012C104.16 24.0218 104.721 24.1371 105.293 24.1271C106.115 24.1522 106.923 23.9366 107.63 23.5003C108.231 23.1393 108.743 22.6428 109.124 22.0562L110.433 23.1242C109.811 23.9466 108.999 24.6185 108.066 25.0648C107.188 25.4609 106.246 25.6665 105.293 25.6565C104.446 25.6665 103.608 25.4961 102.831 25.1801C102.094 24.8793 101.432 24.428 100.875 23.8613C100.319 23.2847 99.8824 22.6128 99.5816 21.8706C99.2607 21.0683 99.1052 20.2159 99.1102 19.3584C99.1052 18.5009 99.2556 17.6485 99.5665 16.8562C99.8524 16.1091 100.299 15.4321 100.845 14.8555C101.392 14.2938 102.044 13.8476 102.766 13.5367C103.513 13.2157 104.32 13.0603 105.138 13.0653C105.965 13.0503 106.792 13.2208 107.56 13.5517C108.236 13.8526 108.843 14.2938 109.35 14.8504C109.841 15.402 110.222 16.0389 110.463 16.7409C110.719 17.483 110.844 18.2703 110.844 19.0575ZM101.281 16.9916C101.051 17.4379 100.935 17.9293 100.935 18.4257L109.009 18.4307C109.059 17.4078 108.698 16.4099 108.006 15.6578C107.244 14.9156 106.206 14.5245 105.138 14.5897C104.591 14.5797 104.049 14.69 103.543 14.9056C103.042 15.1062 102.595 15.397 102.199 15.7631C101.823 16.1191 101.512 16.5303 101.281 16.9916Z" fill="white"/>
<path d="M26.1953 57.3773H21.9029V33.2028H27.5692L39.2729 51.1644H39.3381V33.2028H43.6355V57.3773H38.1848L26.2655 38.839H26.1953V57.3773Z" fill="white"/>
<path fill-rule="evenodd" clip-rule="evenodd" d="M57.1444 57.0965C54.1006 55.9582 51.6736 53.5764 50.4852 50.5527L50.5103 50.5577C49.8584 48.918 49.5325 47.1629 49.5575 45.3979C49.5124 43.6027 49.8183 41.8075 50.4501 40.1177C51.0468 38.6033 51.9594 37.2244 53.1128 36.0761C54.2611 34.9428 55.62 34.0703 57.1293 33.4986C58.769 32.8769 60.499 32.566 62.2541 32.586C64.0141 32.5409 65.7742 32.8217 67.434 33.4234C68.9484 33.97 70.3273 34.8375 71.4907 35.9707C72.644 37.114 73.5466 38.483 74.1433 39.9973C74.8002 41.6671 75.1261 43.4623 75.096 45.2575C75.1261 47.0275 74.8152 48.7776 74.1634 50.4173C73.5566 51.9166 72.654 53.2805 71.5007 54.4138C70.3373 55.542 68.9634 56.4396 67.444 57.0313C65.7993 57.6681 64.0392 57.9991 62.2691 57.9991C60.5141 58.0191 58.7841 57.7082 57.1444 57.0965ZM56.317 38.9944C55.5799 39.7968 55.0082 40.7244 54.6271 41.7423L54.6171 41.7273C54.2109 42.8104 54.0103 43.9487 54.0254 45.112C54.0103 46.3305 54.2009 47.544 54.6071 48.6923C54.9831 49.7403 55.5548 50.7081 56.2969 51.5305C57.024 52.3328 57.9116 52.9746 58.8994 53.4059C59.9775 53.8772 61.1308 54.1079 62.2942 54.0929C63.4676 54.1079 64.6259 53.8772 65.699 53.4059C66.6969 52.9746 67.5894 52.3328 68.3266 51.5305C69.0687 50.7081 69.6403 49.7403 70.0164 48.6923C70.4226 47.544 70.6232 46.3305 70.6081 45.112C70.6232 43.9587 70.4326 42.8154 70.0415 41.7423C69.6604 40.7294 69.0888 39.7968 68.3516 38.9944C67.6145 38.2022 66.7169 37.5754 65.7241 37.1491C64.651 36.6978 63.4876 36.4722 62.3193 36.4872C61.1509 36.4622 59.9926 36.6928 58.9195 37.1491C57.9316 37.5804 57.0441 38.2072 56.317 38.9944Z" fill="white"/>
<path d="M89.3721 57.3773H85.4258L78.2953 33.2028H83.0138L87.5369 50.6179H87.6071L93.0277 33.2028H97.2548L102.575 50.6179H102.645L107.379 33.2028H111.737L104.721 57.3773H100.635L95.0284 38.9694H94.9582L89.3721 57.3773Z" fill="white"/>
</svg>
