<svg width="182" height="64" viewBox="0 0 182 64" fill="none" xmlns="http://www.w3.org/2000/svg">
<path fill-rule="evenodd" clip-rule="evenodd" d="M45.9183 43.2914H50.6704L46.083 26.1458L49.3651 20.4433H44.5624L42.5221 12.8906H37.8714L20.3203 43.3041H25.63L39.4808 19.3155L41.1282 25.4995L30.8636 43.2914H36.1733L42.8263 31.7976L45.9183 43.2914ZM57.4618 43.3047V20.4313H52.7984V43.3047H57.4618ZM76.498 43.3554V27.8826L71.822 27.946V28.7823C70.6308 28.0093 69.1228 27.5531 67.412 27.5531C63.1668 27.5531 59.7453 30.6452 59.7453 35.2579C59.7453 39.2243 63.1542 42.6711 67.412 42.6711C69.1101 42.6711 70.6308 42.2149 71.822 41.4419V43.4188C71.822 45.9279 70.1492 46.891 68.3498 46.891C66.4489 46.891 65.0043 46.1814 64.8142 44.534L60.1635 44.5086C60.4803 48.3737 63.7751 51.1109 68.185 51.1109C72.7597 51.1109 76.498 48.1582 76.498 43.3554ZM71.8347 33.2303V36.994C70.8842 38.3626 69.5663 38.8314 68.2611 38.8441C65.9674 38.8441 64.3707 36.9686 64.3707 35.2579C64.3707 32.9262 65.9674 31.3928 68.2611 31.3928C69.5663 31.3928 70.8842 31.849 71.8347 33.2303ZM95.1014 35.4082C95.1014 40.1729 91.5785 43.5691 86.8517 43.5691C82.087 43.5691 78.5641 40.1729 78.5641 35.4082C78.5641 30.6814 82.087 27.2219 86.8517 27.2219C91.5785 27.2219 95.1014 30.6814 95.1014 35.4082ZM90.6027 35.4082C90.6027 33.1652 89.1327 31.353 86.8517 31.353C84.5454 31.353 83.0754 33.1652 83.0754 35.4082C83.0754 37.7145 84.5454 39.4379 86.8517 39.4379C89.1201 39.4253 90.6027 37.7145 90.6027 35.4082ZM124.056 43.2796V27.9081L119.481 27.9208V28.7952C118.29 28.0222 116.782 27.5406 115.071 27.5406C110.826 27.5406 107.405 31.1522 107.405 35.6255C107.405 40.0735 110.814 43.6851 115.071 43.6851C116.769 43.6851 118.29 43.2035 119.481 42.4305V43.3049L124.056 43.2796ZM119.481 33.2685V37.9826C118.518 39.3512 117.175 39.7187 115.832 39.7313C113.487 39.7313 111.865 37.8559 111.865 35.6382C111.865 33.3952 113.487 31.5197 115.832 31.5197C117.175 31.5197 118.518 31.8999 119.481 33.2685ZM142.861 34.9537V43.3048H138.363V35.4986C138.363 32.9895 137.108 31.6589 134.878 31.6589C133.712 31.6589 132.432 32.3306 131.33 33.6231V43.3048H126.73V27.9333H131.33V29.0991C132.584 28.098 134.042 27.5531 135.778 27.5531C139.884 27.5531 142.861 30.4424 142.861 34.9537ZM161.439 20.4314V43.3049H156.775V42.4305C155.584 43.2035 154.063 43.685 152.365 43.685C148.107 43.685 144.698 40.0734 144.698 35.6001C144.698 31.1522 148.12 27.5406 152.365 27.5406C154.076 27.5406 155.584 28.0221 156.775 28.7951V20.4187L161.439 20.4314ZM156.775 37.9952V33.2431C155.799 31.8618 154.443 31.4816 153.1 31.4816C150.743 31.4816 149.108 33.3698 149.108 35.6001C149.108 37.8685 150.743 39.7566 153.1 39.7566C154.443 39.7566 155.799 39.3765 156.775 37.9952ZM106.3 31.8412C106.397 31.8304 106.486 31.8204 106.567 31.8104V27.8946C104.412 27.6792 102.828 28.2114 101.777 29.1112V27.958H97.1766V43.3168H101.777V33.9773C103.06 32.2042 105.181 31.9666 106.3 31.8412Z" fill="white"/>
</svg>
