<svg width="225" height="64" viewBox="0 0 225 64" fill="none" xmlns="http://www.w3.org/2000/svg">
<path fill-rule="evenodd" clip-rule="evenodd" d="M64.8607 33.9882L54.1229 40.2219C53.5194 40.553 52.857 40.553 52.2609 40.2219L48.213 37.9035V32.0673L53.1882 34.9155L60.7466 30.5438V21.8594L53.1882 17.4804L45.7549 21.7931L45.6224 21.8594V44.071C45.6224 44.7334 45.2912 45.3295 44.6951 45.6607L33.9573 51.8944C33.3611 52.2255 32.6988 52.2255 32.1026 51.8944L21.3648 45.6607C20.7687 45.3295 20.4375 44.7334 20.4375 44.071V31.6036C20.4375 30.9413 20.7687 30.3451 21.3648 30.0139L32.11 23.7729C32.3749 23.5742 32.7061 23.508 33.0373 23.508C33.3685 23.508 33.6997 23.6404 33.9646 23.7729L38.0125 26.0912V31.9275L33.0373 29.0793L25.4789 33.4583V42.1427L33.0373 46.5218L40.5957 42.1427V19.9311C40.5957 19.2688 40.9269 18.6726 41.5231 18.3414L52.2682 12.1078C52.8644 11.7766 53.5268 11.7766 54.1229 12.1078L64.8607 18.3414C65.4568 18.6726 65.788 19.2688 65.788 19.9311V32.3985C65.788 33.0609 65.4568 33.657 64.8607 33.9882ZM119.691 42.3416V17.2155H124.07V42.3416H119.691ZM77.7262 49.4365V49.5027H77.7188V49.4365H77.7262ZM82.0978 49.4365H77.7262V24.178H81.5091L81.8402 26.2313H82.039C83.0988 24.8404 84.9534 23.8468 87.4778 23.8468C92.1218 23.8468 95.8973 27.6297 95.8973 33.2599C95.8973 38.89 92.1806 42.6729 87.4704 42.6729C84.9534 42.6729 83.2239 41.6131 82.2966 40.4209H82.0978V49.4365ZM86.8081 27.8873C89.3987 27.8873 91.5183 29.948 91.5183 33.2599C91.5183 36.5791 89.3987 38.6325 86.8081 38.6325C84.2174 38.6325 82.0978 36.5791 82.0978 33.2599C82.0978 29.9406 84.2174 27.8873 86.8081 27.8873ZM107.296 23.8468C102.063 23.8468 98.0813 27.7548 98.0813 33.2599C98.0813 38.6987 101.989 42.6729 107.296 42.6729C112.528 42.6729 116.51 38.7649 116.51 33.2599C116.51 27.8284 112.602 23.8468 107.296 23.8468ZM107.288 27.8873C110.011 27.8873 112.131 30.0142 112.131 33.2599C112.131 36.5129 109.945 38.6325 107.288 38.6325C104.631 38.6325 102.446 36.5129 102.446 33.2599C102.446 30.0069 104.639 27.8873 107.288 27.8873ZM145.024 24.1792H140.38V24.1718H140.254L136.008 36.7716H135.279L130.569 24.1718H125.925L133.351 43.4027L132.954 44.595C132.755 45.1249 132.424 45.4561 131.761 45.4561H128.185V49.5039H132.424C135.279 49.5039 136.339 48.4441 137.134 46.2583L145.024 24.1792ZM145.885 43.2764H150.33C150.529 44.4687 151.721 46.0584 154.511 46.0584C157.16 46.0584 158.89 44.4025 158.89 41.8781V39.3611H158.691C157.697 40.4209 155.909 41.3482 153.65 41.3482C149.006 41.3482 145.363 37.7714 145.363 32.5975C145.363 27.4236 148.939 23.8468 153.65 23.8468C156.034 23.8468 157.83 24.8404 158.956 26.1651H159.155L159.486 24.178H163.269V41.8781C163.269 46.7208 160.023 49.9002 154.518 49.9002C148.336 49.9002 146.018 45.8597 145.885 43.2764ZM158.816 32.5975C158.816 29.7493 156.829 27.7548 154.238 27.7548C151.721 27.7548 149.727 29.7419 149.727 32.5975C149.727 35.4531 151.714 37.4402 154.238 37.4402C156.763 37.4402 158.816 35.4457 158.816 32.5975ZM175.455 23.8469C170.222 23.8469 166.241 27.7549 166.241 33.2599C166.241 38.6988 170.149 42.673 175.455 42.673C180.688 42.673 184.669 38.765 184.669 33.2599C184.669 27.8285 180.761 23.8469 175.455 23.8469ZM175.455 27.8874C178.112 27.8874 180.298 30.0143 180.298 33.2599C180.298 36.5129 178.105 38.6325 175.455 38.6325C172.798 38.6325 170.612 36.5129 170.612 33.2599C170.612 30.007 172.806 27.8874 175.455 27.8874ZM187.725 24.178H191.508L191.839 25.9002H192.038C192.766 25.1053 194.555 23.8468 197.278 23.8468C201.458 23.8468 204.439 26.8275 204.439 31.4715V42.408H200.06V32.0676C200.06 29.7493 198.404 28.0198 196.145 28.0198C193.885 28.0198 192.097 29.8082 192.097 32.0676V42.408H187.725V42.3417V24.178Z" fill="white"/>
</svg>
