<svg width="212" height="64" viewBox="0 0 212 64" fill="none" xmlns="http://www.w3.org/2000/svg">
<path fill-rule="evenodd" clip-rule="evenodd" d="M52.9741 30.0358V26.1097H43.3351L50.1041 15.875H44.9867L36.8368 28.2217L28.714 15.875H23.5966L30.3656 26.1097H20.7266V30.0629H52.9741V30.0358ZM71.702 36.4782C71.8355 38.1431 72.5295 39.4645 73.7575 40.4688C74.9854 41.473 76.587 41.9752 78.5624 41.9752C80.2975 41.9752 81.6856 41.6051 82.7533 40.8652C83.8211 40.1252 84.3549 39.0946 84.3549 37.7996C84.3549 36.8747 84.0613 36.1082 83.474 35.5797C82.8868 35.0247 82.1127 34.6018 81.0982 34.3111C80.0839 34.0204 78.6958 33.7033 76.8807 33.3862C75.0388 33.069 73.4638 32.6462 72.1558 32.1177C70.8478 31.5891 69.7801 30.7963 68.9526 29.7392C68.125 28.6556 67.7246 27.255 67.7246 25.5108C67.7246 23.8987 68.1517 22.4716 69.006 21.2031C69.8601 19.9345 71.0347 18.9567 72.5829 18.2696C74.1045 17.5825 75.8662 17.2125 77.8416 17.2125C79.8703 17.2125 81.6856 17.5825 83.2871 18.3489C84.8888 19.0889 86.1434 20.1195 87.0511 21.4409C87.9589 22.7623 88.466 24.2422 88.5458 25.9336H83.9545C83.7944 24.4801 83.1537 23.3173 82.0592 22.4452C80.9381 21.5731 79.55 21.1238 77.8416 21.1238C76.1866 21.1238 74.8786 21.4673 73.8909 22.1809C72.9032 22.8944 72.4228 23.8987 72.4228 25.1672C72.4228 26.0658 72.7164 26.8058 73.3037 27.3343C73.8909 27.8628 74.665 28.2592 75.626 28.5499C76.587 28.8142 78.0018 29.1049 79.817 29.4221C81.6589 29.7392 83.2338 30.162 84.5685 30.717C85.9031 31.2455 86.9705 32.0384 87.8251 33.0955C88.6522 34.1526 89.0795 35.5268 89.0795 37.2446C89.0795 38.9096 88.6256 40.3895 87.7453 41.7109C86.8641 43.0323 85.6097 44.0365 84.0079 44.7764C82.4063 45.5164 80.5911 45.8864 78.5624 45.8864C76.32 45.8864 74.3447 45.49 72.6363 44.6707C70.9279 43.8779 69.5932 42.7415 68.6322 41.3144C67.6712 39.8874 67.1907 38.2489 67.1641 36.3989L71.702 36.4782ZM94.0182 28.8935H90.4146V25.0879H94.0182V19.3267H98.4491V25.0615H103.441V28.8671H98.4491V39.5967C98.4491 40.3895 98.6095 40.9709 98.9295 41.3144C99.2504 41.658 99.8107 41.8166 100.585 41.8166H103.921V45.6486H99.7035C97.7283 45.6486 96.2868 45.1993 95.3791 44.2743C94.4721 43.3758 94.0182 41.9487 94.0182 40.046V28.8935ZM125.997 25.0879V45.6486H122.153L121.673 42.5037C120.952 43.5343 120.018 44.3272 118.87 44.9615C117.723 45.5693 116.414 45.8864 114.893 45.8864C112.998 45.8864 111.316 45.4636 109.821 44.6179C108.326 43.7723 107.178 42.5565 106.324 40.9709C105.497 39.3852 105.069 37.5089 105.069 35.3683C105.069 33.2805 105.497 31.4305 106.351 29.8449C107.205 28.2592 108.38 27.0171 109.848 26.145C111.342 25.2729 113.024 24.8501 114.866 24.8501C116.414 24.8501 117.749 25.1408 118.87 25.7222C120.018 26.3036 120.926 27.0964 121.62 28.1007L122.153 25.0879H125.997ZM119.991 40.3367C121.113 39.0681 121.646 37.456 121.646 35.4475C121.646 33.4126 121.086 31.7477 119.991 30.4792C118.87 29.1842 117.428 28.5499 115.614 28.5499C113.798 28.5499 112.33 29.1842 111.236 30.4527C110.115 31.7213 109.581 33.3597 109.581 35.3683C109.581 37.4032 110.141 39.0681 111.236 40.3367C112.357 41.6051 113.798 42.2394 115.614 42.2394C117.428 42.2394 118.896 41.6051 119.991 40.3367ZM146.338 43.8515C144.657 45.1993 142.521 45.8864 139.878 45.8864C137.823 45.8864 136.008 45.4636 134.433 44.5915C132.858 43.7194 131.657 42.4773 130.802 40.8652C129.948 39.2531 129.521 37.4032 129.521 35.3154C129.521 33.2276 129.948 31.4041 130.829 29.8185C131.683 28.2328 132.911 27.0171 134.512 26.145C136.088 25.2729 137.93 24.8501 140.011 24.8501C142.601 24.8501 144.736 25.5372 146.392 26.885C148.047 28.2328 149.061 30.0828 149.488 32.4084H144.977C144.683 31.2192 144.095 30.2941 143.189 29.607C142.307 28.9199 141.213 28.5499 139.905 28.5499C138.143 28.5499 136.729 29.1842 135.66 30.4263C134.593 31.6948 134.059 33.3069 134.059 35.3154C134.059 37.3503 134.593 39.0152 135.66 40.2838C136.729 41.5523 138.143 42.1866 139.905 42.1866C141.267 42.1866 142.387 41.843 143.268 41.1295C144.15 40.4159 144.736 39.4645 145.003 38.2489H149.461C149.061 40.6538 147.993 42.5037 146.338 43.8515ZM153.011 17.5297H157.363V35.1304L166.866 25.0879H171.937L164.196 33.3597L172.444 45.6486H167.24L161.073 36.5311L157.39 40.3895V45.6486H153.011V17.5297ZM177.436 38.8567C177.517 39.9402 178.024 40.8123 178.958 41.4994C179.892 42.1866 181.093 42.5302 182.589 42.5302C183.923 42.5302 184.991 42.2922 185.818 41.7902C186.646 41.2881 187.046 40.6273 187.046 39.8081C187.046 39.1209 186.859 38.5924 186.486 38.2489C186.112 37.9053 185.605 37.641 184.964 37.5089C184.324 37.3503 183.336 37.2182 182.028 37.0596C180.213 36.8482 178.718 36.5575 177.543 36.1875C176.369 35.8175 175.408 35.2625 174.714 34.4697C173.993 33.6769 173.646 32.6197 173.646 31.272C173.646 30.0034 173.993 28.8935 174.714 27.9157C175.435 26.9379 176.422 26.1714 177.677 25.6429C178.931 25.1144 180.372 24.8501 181.948 24.8501C184.564 24.8501 186.699 25.4315 188.328 26.5678C189.956 27.7307 190.837 29.3427 190.997 31.4305H186.726C186.619 30.5056 186.138 29.7128 185.311 29.1314C184.484 28.5235 183.416 28.2328 182.135 28.2328C180.853 28.2328 179.839 28.4707 179.038 28.9463C178.264 29.4221 177.864 30.0828 177.864 30.902C177.864 31.5098 178.051 31.9855 178.45 32.2762C178.851 32.5934 179.332 32.8048 179.919 32.9105C180.506 33.0426 181.467 33.1747 182.802 33.3333C184.59 33.5183 186.085 33.809 187.313 34.2054C188.541 34.6018 189.502 35.2097 190.222 36.0554C190.943 36.901 191.317 38.0374 191.317 39.491C191.317 40.7859 190.943 41.8958 190.169 42.8737C189.422 43.8515 188.381 44.5915 187.046 45.12C185.712 45.6486 184.244 45.9128 182.589 45.9128C179.812 45.9128 177.543 45.2786 175.835 44.0365C174.126 42.7944 173.219 41.0766 173.165 38.8831H177.436V38.8567ZM43.1456 37.7521L49.9958 48.1222H44.8784L36.8368 35.9379L28.7952 48.1222H23.7049L30.5551 37.7791H20.7266V33.8531H52.9741V37.7521H43.1456Z" fill="white"/>
</svg>
