<svg width="134" height="64" viewBox="0 0 134 64" fill="none" xmlns="http://www.w3.org/2000/svg">
<path fill-rule="evenodd" clip-rule="evenodd" d="M47.2522 7.90321C47.2522 8.00453 47.2522 8.10585 47.2522 8.20717C47.2522 9.01773 47.5128 9.22037 48.3233 9.10458C48.7576 9.0322 49.2063 9.00326 49.655 8.97431C51.1893 8.84404 51.2472 8.80062 51.2037 7.23739C51.2037 7.16502 51.2037 7.10712 51.2037 7.03475C51.1603 6.58605 50.9432 6.32551 50.4655 6.36893C49.626 6.4413 48.7865 6.48473 47.947 6.58605C47.5128 6.64394 47.2378 6.93343 47.2522 7.41108C47.2522 7.5703 47.2522 7.74399 47.2522 7.90321ZM59.3962 27.8488C58.7449 29.7015 58.108 31.5542 57.4422 33.4793C58.8317 33.3635 60.1489 33.2477 61.5239 33.1319C60.8436 31.3226 60.1778 29.5713 59.5265 27.8343L59.3962 27.8488ZM29.1883 33.0596C29.7528 33.0161 30.2883 33.0017 30.8094 32.9438C31.5476 32.8569 32.2858 32.7846 33.0095 32.6253C33.6464 32.4951 34.1096 32.0753 34.2833 31.4384C34.6017 30.295 34.2977 29.4265 33.0529 29.3686C31.7647 29.3107 30.4765 29.441 29.1738 29.4844V33.0596H29.1883ZM43.0836 32.1477C44.0679 32.0608 45.0377 32.0174 45.9785 31.8727C46.6298 31.7569 47.2957 31.5687 47.8891 31.2647C48.526 30.9463 48.7431 30.0923 48.5405 29.2818C48.3812 28.6594 47.8167 28.1528 47.122 28.1528C45.7759 28.1672 44.4442 28.2686 43.0836 28.3265V32.1477ZM33.5161 34.9557C32.5319 34.8689 31.5331 34.9702 30.5489 34.9991C30.1002 35.0136 29.637 35.0715 29.1883 35.1149V39.0809C30.3028 38.994 31.3594 38.9506 32.4161 38.8059C32.995 38.719 33.5885 38.5309 34.0951 38.2703C34.9057 37.8361 35.0649 37.04 34.9635 36.2005C34.8622 35.4768 34.4425 35.0281 33.5161 34.9557ZM100.127 26.1264C100.778 26.3869 101.488 26.5027 102.182 26.6474C103.919 27.0238 105.772 27.1106 106.988 28.7028V24.071C106.959 24.071 106.944 24.071 106.915 24.0565C106.829 24.3026 106.742 24.5631 106.626 24.8092C106.221 25.6632 104.947 25.9093 104.484 24.9539C104.368 24.7368 104.267 24.4908 104.107 24.3171C103.774 23.9697 103.456 23.492 103.022 23.3473C101.878 22.9565 100.749 23.1447 99.8085 23.9407C98.9979 24.65 99.1427 25.7211 100.127 26.1264ZM77.1272 23.6368C75.1008 23.8105 72.9876 23.9986 70.8309 24.1868C72.8718 27.0961 74.8692 29.9621 76.8667 32.828C76.9101 32.8135 76.9391 32.8135 76.9825 32.799V32.2779C76.9825 30.0489 76.968 27.8199 76.9825 25.5908C76.997 24.954 77.0693 24.3171 77.1272 23.6368ZM50.755 11.7534C50.7116 11.3047 50.4076 11.0152 49.9589 11.0586C49.4668 11.102 48.9747 11.1455 48.4826 11.2323C47.9036 11.3336 47.7733 11.5218 47.7733 12.1008C47.7733 13.939 47.7733 15.7628 47.7733 17.601C47.7733 19.4682 47.7733 21.3354 47.7733 23.2026C47.7733 23.6947 48.0049 23.9407 48.4536 23.9263C48.9023 23.8973 49.3365 23.825 49.7852 23.796C50.5958 23.7526 50.7695 23.3184 50.7695 22.6091C50.755 19.1063 50.7695 15.618 50.7695 12.1152C50.755 11.985 50.755 11.8692 50.755 11.7534ZM85.4789 34.3478C86.4342 34.2465 87.3461 34.1307 88.2725 34.0583C89.9081 33.9425 90.8199 32.9872 91.2686 31.5108C91.7318 30.0344 91.7463 28.5291 91.37 27.0383C90.9936 25.5329 90.0383 24.8237 88.4896 24.8382C87.6645 24.8382 86.825 24.925 86 24.925C85.5513 24.925 85.4355 25.0842 85.45 25.504C85.4644 28.283 85.4644 31.0621 85.4644 33.8412C85.45 34.0149 85.4644 34.1596 85.4789 34.3478ZM95.3649 19.4537C96.9426 19.7287 98.4624 19.3813 99.9532 18.9471C101.516 18.4839 101.198 18.3537 101.213 17.2247C101.227 16.3562 100.981 16.2259 100.112 16.3996C98.9835 16.6312 97.84 16.8339 96.6965 16.9497C95.8715 17.0365 95.3215 16.4286 95.3215 15.6035C95.3215 14.8364 95.3215 14.0693 95.3215 13.3021C95.3215 12.6218 95.3793 11.9271 95.307 11.2612C95.2057 10.248 96.0307 9.32169 97.2321 9.35064C98.2887 9.37959 99.3598 9.36511 100.416 9.37959C100.966 9.37959 101.198 9.148 101.213 8.59797C101.213 8.30849 101.198 8.03348 101.213 7.74399C101.241 7.28081 101.039 7.03475 100.59 6.9479C99.0269 6.61499 97.4347 6.64394 95.9004 7.0058C93.8017 7.49793 92.3687 9.23484 92.3253 11.2323C92.2818 12.7955 92.2963 14.3588 92.3253 15.922C92.3832 17.7747 93.5701 19.1353 95.3649 19.4537ZM34.0806 24.2447C34.0806 24.9684 34.3412 25.2 35.0649 25.1566C35.3978 25.1276 35.7307 25.0842 36.0491 25.0553C36.7873 25.0118 37.0623 24.7513 37.0623 24.0131C37.0623 21.4656 37.0623 18.9182 37.0623 16.3707C37.0623 15.4877 37.6847 14.7496 38.4953 14.6627C39.1032 14.6048 39.7111 14.5324 40.319 14.4745C41.3033 14.3732 41.9546 14.9522 41.9546 15.9365C41.9546 16.3417 41.9546 16.7325 41.9546 17.1378C41.9546 19.28 41.9546 21.4367 41.9546 23.5789C41.9546 24.2737 42.2876 24.5342 42.9678 24.4473C43.2573 24.4039 43.5613 24.3895 43.8653 24.3605C44.6758 24.2881 44.9943 23.9986 44.9653 23.217C44.9219 21.9288 44.9508 20.6551 44.9508 19.3669C44.9508 18.1221 44.9508 16.8628 44.9508 15.618C44.9508 13.8232 43.9087 12.4192 42.1428 12.0863C40.4204 11.7534 38.6834 11.9126 37.0479 12.506C35.3688 13.114 34.2398 14.3443 34.1096 16.2259C34.0227 17.6299 34.0661 19.0484 34.0517 20.4669C34.0661 21.7117 34.0661 22.971 34.0806 24.2447ZM28.3198 22.942C28.3198 23.0433 28.0593 23.217 27.9001 23.2315C26.9448 23.3328 25.975 23.4052 25.0197 23.4631C24.1512 23.521 23.5867 23.1447 23.4565 22.4209C23.3262 21.6538 23.7894 20.8722 24.571 20.6551C24.9763 20.5393 25.425 20.5393 25.8447 20.4814C26.25 20.438 26.6698 20.3945 27.0895 20.3511C27.4803 20.3222 27.8856 20.3077 28.3488 20.2787C28.3343 21.1906 28.3488 22.0736 28.3198 22.942ZM31.2871 24.3895C31.2871 21.9433 31.2871 19.4971 31.2871 17.051C31.2871 16.6746 31.2871 16.2838 31.2002 15.9075C30.8094 14.3009 29.3475 13.114 27.683 13.1719C26.4671 13.2153 25.2368 13.389 24.0354 13.6061C22.9354 13.8087 22.8485 13.9969 22.8485 15.1114C22.8485 15.2417 22.8485 15.372 22.8485 15.5167C22.8775 16.0957 23.1091 16.2694 23.6736 16.1825C24.6578 16.0233 25.6421 15.9509 26.6119 15.7483C27.6974 15.5167 28.6093 16.4865 28.2475 17.7313C27.408 17.8036 26.5395 17.905 25.6855 17.9629C24.296 18.0497 23.0222 18.3681 21.9077 19.28C20.2432 20.6551 19.8958 23.1881 21.2419 24.7513C22.313 25.9961 23.7604 26.1843 25.2802 26.0395C26.9158 25.8948 28.5514 25.7066 30.187 25.5763C31.0989 25.475 31.2871 25.3158 31.2871 24.3895ZM110.751 15.7193C109.868 15.8062 109.014 15.8786 108.16 15.9509C107.798 15.9799 107.422 16.0667 107.075 16.0233C106.365 15.9509 105.888 15.4009 105.859 14.7206C105.83 14.0693 106.423 13.2587 107.089 13.1719C108.29 13.0126 109.492 12.9258 110.751 12.81V15.7193ZM113.718 9.16247C113.704 7.41108 112.372 5.97812 110.635 5.76101C109.246 5.57284 107.9 5.84785 106.554 6.13734C105.28 6.42683 105.28 6.47025 105.294 7.77294C105.294 7.87426 105.294 7.97558 105.294 8.0769C105.323 8.62692 105.613 8.80062 106.163 8.71377C107.248 8.54008 108.348 8.38086 109.448 8.27954C109.723 8.25059 110.056 8.42428 110.288 8.59797C110.823 8.98878 110.795 9.5967 110.737 10.248C109.926 10.3204 109.144 10.3783 108.363 10.4507C107.306 10.552 106.25 10.6244 105.294 11.1455C103.572 12.0718 102.703 13.664 102.906 15.5891C103.094 17.3405 104.961 18.73 107.002 18.5708C108.971 18.426 110.939 18.2234 112.908 18.0497C113.501 17.9918 113.718 17.7602 113.718 17.1523C113.733 14.489 113.733 11.8257 113.718 9.16247ZM53.4907 22.6815C53.4907 22.7104 53.5051 22.7539 53.5051 22.7828C53.5341 23.217 53.7946 23.4052 54.1999 23.3762C54.6486 23.3473 55.0973 23.2894 55.546 23.2605C56.2408 23.2026 56.4434 22.9854 56.4434 22.2907C56.4434 19.7721 56.4434 17.2536 56.4434 14.7496C56.4434 13.7074 57.0803 12.9692 58.0646 12.8824C58.6001 12.8389 59.1212 12.81 59.6567 12.7811C60.9015 12.7087 61.3647 13.1429 61.3647 14.3877C61.3647 16.7904 61.3647 19.1787 61.3647 21.5814C61.3647 21.7406 61.3502 21.9143 61.3792 22.0736C61.4371 22.4788 61.6252 22.7104 62.0739 22.6815C62.5082 22.6381 62.9279 22.6091 63.3622 22.5802C64.0425 22.5367 64.3319 22.2473 64.3319 21.5525C64.3319 19.0484 64.3319 16.5588 64.3319 14.0548C64.3319 12.9113 64.9978 12.231 66.1268 12.1731C66.5755 12.1587 67.0242 12.1152 67.4729 12.0573C68.7032 11.9271 69.2822 12.4337 69.2822 13.664C69.2822 15.7628 69.2822 17.8615 69.2822 19.9603C69.2822 20.409 69.2822 20.8577 69.2966 21.3064C69.3111 21.7551 69.5427 21.9867 69.9914 21.9578C70.5125 21.9288 71.0191 21.9143 71.5257 21.842C72.0323 21.7696 72.2204 21.4946 72.2204 20.9156C72.2204 18.2523 72.206 15.5891 72.2204 12.9258C72.2349 11.2323 71.0336 10.1033 69.7019 9.66907C68.7611 9.36511 67.8058 9.49538 66.836 9.55328C65.3886 9.64013 63.999 9.87172 62.9279 10.827C62.3345 10.6244 61.8424 10.3349 61.3502 10.2915C60.4094 10.2191 59.4686 10.2336 58.5277 10.3204C57.7895 10.3928 57.0369 10.5086 56.3566 10.7836C54.6776 11.4494 53.5486 12.6653 53.5051 14.5469C53.4617 17.2536 53.5052 19.9748 53.4907 22.6815ZM82.5117 16.6602C83.0038 16.6746 83.3367 17.022 83.3367 17.5142C83.3222 18.0786 82.888 18.4839 82.2946 18.4695C81.8314 18.455 81.4985 18.1221 81.4985 17.6444C81.513 17.0944 81.9617 16.6457 82.5117 16.6602ZM85.6816 16.3562C86.1158 16.3707 86.5066 16.7615 86.5066 17.1812C86.5211 17.6878 86 18.2234 85.4934 18.2089C85.0447 18.2089 84.6249 17.7892 84.6394 17.3405C84.6394 16.8483 85.175 16.3417 85.6816 16.3562ZM73.1758 9.98751C73.5521 9.94409 73.8995 9.74144 74.1455 9.64012C75.1587 10.5665 76.1719 11.4928 77.2865 12.506C76.5627 12.7521 75.9982 12.9403 75.4482 13.1284C75.0864 12.5784 74.71 12.4192 74.2034 12.5639C73.7981 12.6797 73.4652 13.1284 73.4363 13.5627C73.4073 14.0258 73.61 14.3298 74.0153 14.5035C74.5074 14.7061 74.9127 14.5035 75.4916 13.7508C75.9548 13.9679 76.4325 14.1995 76.9246 14.4022C77.1996 14.5035 77.243 14.6772 77.2575 14.9377C77.272 15.372 77.3009 15.8062 77.4167 16.2115C78.2852 19.5406 81.3248 21.3933 84.7118 20.7853C88.6054 20.0906 91.6884 16.0667 90.7331 11.9271C89.9949 8.68482 87.1145 6.96238 84.1618 7.19397C82.8446 7.29529 81.6143 7.72952 80.5287 8.51113C80.3116 8.67035 80.1524 8.69929 79.9208 8.51113C79.5444 8.20717 79.1392 7.9611 78.7628 7.70057C79.0089 6.89001 78.9221 6.52815 78.4733 6.22419C78.097 5.97812 77.5759 6.02155 77.1851 6.32551C76.8233 6.61499 76.6496 7.20844 76.8233 7.6282C77.0259 8.12032 77.3878 8.26507 78.2707 8.16374C78.372 8.81509 78.4733 9.46643 78.5891 10.1901C77.2575 9.74145 76.0272 9.33617 74.8113 8.90194C74.6956 8.85851 74.5798 8.67035 74.5363 8.5256C74.3482 7.77294 73.856 7.44003 73.1034 7.5703C72.452 7.68609 71.9889 8.33744 72.0612 9.04668C72.0902 9.5967 72.5823 10.0599 73.1758 9.98751ZM106.365 33.4648C104.715 35.5202 100.764 35.9689 98.6361 35.0281C97.3623 34.4636 96.3781 33.0306 96.4215 31.8003C96.436 31.2213 96.8557 30.7003 97.4058 30.57C98.0426 30.4108 98.4769 30.5989 98.8098 31.2069C99.0269 31.5977 99.215 32.0029 99.4177 32.3937C99.6927 32.9148 100.156 33.2188 100.706 33.3201C101.763 33.5083 102.79 33.4069 103.702 32.7701C104.368 32.3069 104.744 31.67 104.614 30.8595C104.484 30.0634 103.876 29.716 103.167 29.5568C102.023 29.3107 100.865 29.1226 99.7216 28.8475C98.7229 28.616 97.7966 28.1962 97.1886 27.2988C96.3925 26.1119 96.5373 24.1868 97.565 23.1012C98.1005 22.5367 98.7663 22.1025 99.3164 21.6683C96.3347 21.9288 93.2227 22.2038 90.0962 22.4933C90.1252 22.5223 90.1397 22.5367 90.1397 22.5512C90.2265 22.5802 90.2989 22.5946 90.3857 22.6091C92.2963 23.0144 93.4687 24.2158 94.0477 26.025C94.6846 28.008 94.6556 30.02 94.0332 31.9885C93.324 34.2465 91.8331 35.7373 89.4449 36.1571C88.3304 36.3452 87.2158 36.4466 86.0868 36.5479C85.3487 36.6202 84.596 36.6492 83.8433 36.6492C83.1775 36.6492 82.8735 36.3887 82.7433 35.7373C82.6854 35.4768 82.6564 35.2162 82.6564 34.9557C82.6564 31.7135 82.6564 28.4567 82.642 25.2145C82.642 24.4329 82.6275 23.6657 83.3801 23.0868C81.9761 23.217 80.659 23.3328 79.4142 23.4486C79.4865 23.9986 79.6023 24.5052 79.6023 25.0118C79.6168 28.312 79.6168 31.6121 79.6023 34.9123C79.6023 35.2886 79.5879 35.6794 79.5444 36.0557C79.4721 36.7071 79.1392 37.1558 78.5023 37.3729C77.6338 37.6624 76.8812 37.3729 76.2443 36.461C75.0864 34.8254 73.9574 33.1609 72.8139 31.5253C72.1191 30.5266 71.4388 29.5278 70.6572 28.4133V31.4529C70.6572 33.1898 70.6572 34.9123 70.6572 36.6492C70.6572 37.5466 70.0493 38.169 69.2387 38.169C68.4716 38.169 68.0808 37.7058 68.0518 36.7216C68.0518 36.5768 68.0518 36.4176 68.0518 36.2729C68.0518 32.9872 68.0374 29.716 68.0663 26.4303C68.0663 25.779 68.2111 25.1276 68.2834 24.4473C65.9241 24.65 63.449 24.8671 60.9884 25.0842C61.22 25.5184 61.4516 25.9093 61.6252 26.329C62.4792 28.3554 63.3332 30.3818 64.1727 32.4082C64.7662 33.8557 65.3596 35.3031 65.9096 36.7795C66.1702 37.4598 65.7215 38.1979 64.9978 38.4874C64.2885 38.7624 63.7385 38.5453 63.3766 37.7927C63.0582 37.1124 62.7542 36.4031 62.4937 35.6939C62.3779 35.3755 62.2332 35.2597 61.8858 35.2886C60.1633 35.4478 58.4409 35.5781 56.7184 35.7228C56.675 35.8676 56.6316 35.9978 56.5737 36.1426C56.2408 37.0111 55.9224 37.865 55.5605 38.719C55.3434 39.2256 54.9092 39.4283 54.3447 39.4138C53.8381 39.3993 53.4038 39.1822 53.288 38.7335C53.1867 38.2993 53.2157 37.7782 53.3604 37.3584C53.7223 36.2439 54.171 35.1583 54.5907 34.0583C55.7052 31.1634 56.8198 28.283 57.9343 25.3737C55.1407 25.6198 52.2748 25.8658 49.2352 26.1408C51.1893 26.9514 51.7103 28.4278 51.4498 30.2081C51.1748 32.0608 49.7708 32.9003 48.1497 33.4504C48.1786 33.5083 48.1786 33.5517 48.2075 33.5662C49.901 34.6373 50.8998 36.2294 51.638 38.0243C51.7393 38.2848 51.7393 38.6467 51.6524 38.9217C51.4643 39.4862 50.9432 39.7033 50.4076 39.7612C49.7852 39.8335 49.3221 39.4717 49.0036 38.9796C48.3812 38.0387 47.8023 37.0689 47.1799 36.1426C46.847 35.6505 46.4996 35.1583 46.0798 34.7386C45.2403 33.8846 44.1692 34.203 43.1126 34.203C43.1126 35.5491 43.1271 36.8374 43.1126 38.14C43.1126 38.5598 43.0836 38.9796 43.0113 39.3704C42.8665 40.0507 42.1862 40.5138 41.4336 40.4704C40.7822 40.427 40.4059 40.0217 40.319 39.2401C40.2901 38.994 40.2756 38.748 40.2756 38.4874C40.2756 35.1873 40.2611 31.8871 40.2901 28.587C40.2901 28.0225 40.4348 27.458 40.5072 26.879C38.9006 27.0238 37.2071 27.1685 35.3978 27.3277C37.8439 28.5581 37.9308 31.9595 35.4267 33.3346C35.9912 33.7109 36.7439 34.0149 37.2215 34.5649C38.2492 35.7807 38.1045 37.1847 37.4242 38.5164C36.6136 40.0941 35.1372 40.6296 33.4872 40.8323C32.1555 40.9915 30.8094 41.1507 29.4778 41.2086C28.5948 41.252 27.654 41.6284 26.8 41.0204C26.6553 41.4402 26.8435 41.556 27.2053 41.6428C36.3531 44.0311 45.5153 46.4338 54.6631 48.8221C66.6478 51.963 78.647 55.1039 90.6318 58.2593C90.9647 58.3462 91.1384 58.3028 91.3121 58.0133C96.5083 49.8063 101.719 41.6139 106.915 33.4069C107.046 33.1898 107.089 32.9148 107.176 32.6688C106.771 32.9148 106.582 33.1898 106.365 33.4648Z" fill="white"/>
</svg>
