<svg width="167" height="64" viewBox="0 0 167 64" fill="none" xmlns="http://www.w3.org/2000/svg">
<path fill-rule="evenodd" clip-rule="evenodd" d="M58.2589 15.6704C56.5104 15.483 54.8188 15.4095 54.5337 15.398C56.4642 16.2913 66.5402 21.6381 65.1767 35.3966L65.1765 35.3964C64.6969 34.8483 63.7385 33.7529 63.67 33.616C63.7385 33.89 65.2454 42.5203 56.0671 49.4383C56.4096 48.2054 56.6835 46.356 56.6835 46.356C56.6835 46.356 53.3273 52.0411 46.4093 53C47.7107 51.9041 48.4642 50.8767 48.4642 50.8767C48.4642 50.8767 46.2723 52.3835 42.0941 52.3835C40.4054 52.3835 38.3449 52.1711 35.9127 51.4189C36.3801 51.4227 36.9705 51.4246 37.7105 51.4246C43.9435 51.4246 48.9436 46.767 48.9436 41.0134C48.9436 37.7942 47.3682 34.8489 44.8339 32.931C44.8339 32.931 43.5325 34.6434 42.8476 35.5338C42.2996 36.3558 41.8201 37.1092 41.9571 37.9996C42.0941 38.9586 41.8201 39.9175 41.2722 40.6024C41.0175 40.8935 40.5117 41.3391 39.9702 41.8161L39.9702 41.8161C39.4921 42.2373 38.9863 42.6829 38.6009 43.0683C38.0529 43.5477 37.2995 43.6847 36.683 43.6847H35.8611C35.4501 43.6847 35.2446 43.8217 34.6282 44.3697C34.5933 44.4045 34.5895 44.435 34.5863 44.461C34.5768 44.5371 34.572 44.5751 33.8062 44.5751C32.7788 44.5751 31.2034 44.0957 30.587 43.8902C29.765 43.5477 28.8061 40.534 28.7376 39.849C28.698 39.4528 29.2085 38.5064 29.6725 37.6464L29.6725 37.6463C30.0105 37.0197 30.3238 36.439 30.3815 36.1503C30.5185 35.4653 31.2034 30.0543 31.2719 29.4378C31.3404 28.8214 31.3404 28.3419 30.7925 27.52C30.45 26.9035 30.45 26.2186 30.7925 24.9172C29.0801 23.7527 21.3402 18.0677 20.9292 17.7252C20.7237 17.5882 20.7922 17.4512 20.7922 17.4512C20.7922 17.4512 20.8607 17.3827 21.1347 17.3827C21.3272 17.3827 25.667 18.9455 29.0304 20.1566L29.0306 20.1567L29.6965 20.3965C28.2582 16.0128 31.2719 13.41 31.2719 13.41C31.2719 13.41 31.7514 15.2594 32.2994 16.5608C34.3542 10.4648 40.1078 11.0127 40.1078 11.0127L38.6694 13.273C38.689 13.2665 38.7466 13.2432 38.8376 13.2063C39.7011 12.8562 43.5721 11.2867 46.5463 11.2867C49.8341 11.2867 53.9437 12.2456 58.2589 15.6704ZM35.038 51.1302C35.3347 51.2343 35.6263 51.3304 35.9127 51.4189C33.8897 51.4027 34.1695 51.3525 34.587 51.2775C34.8203 51.2356 35.0968 51.186 35.038 51.1302ZM34.9022 51.0821C34.9476 51.0984 34.9929 51.1144 35.038 51.1302C35.0216 51.1147 34.9791 51.0986 34.9022 51.0821ZM40.3133 39.712C40.1763 39.9175 39.5598 40.4655 39.0803 40.8764C38.6694 41.2874 38.1899 41.6984 37.7789 42.0408C37.642 42.1778 37.368 42.2463 36.8885 42.2463H35.7926C36.3406 41.4929 37.9844 39.7805 38.5324 39.438C39.2173 39.0271 39.5598 38.5476 39.1488 37.7942C38.7379 37.0407 37.642 37.1777 37.642 37.1777C37.642 37.1777 38.2584 36.9037 38.8064 36.9037C38.1214 36.6982 37.231 36.9037 36.82 37.3147C36.5574 37.5773 36.4906 38.2595 36.4229 38.9502C36.3847 39.3403 36.3462 39.7331 36.2721 40.0545C36.0874 40.9164 35.5706 41.391 34.7716 42.1248L34.7711 42.1252C34.6813 42.2077 34.588 42.2934 34.4912 42.3833C33.9432 42.8628 33.6008 42.9998 33.3268 42.9998C33.2114 42.9741 33.0913 42.9485 32.969 42.9224C32.4379 42.8091 31.8672 42.6873 31.4774 42.5203C31.1349 42.0408 30.587 40.4655 30.3815 39.7805C30.5185 39.438 30.9295 38.6161 31.1349 38.2051C31.197 38.0811 31.2559 37.9648 31.3114 37.8552L31.3115 37.855C31.624 37.2384 31.8302 36.8313 31.8884 36.4243C32.0115 35.87 32.4116 32.6582 32.6404 30.8208L32.7103 30.2597C33.1898 30.8762 33.8747 31.9036 33.7377 32.5886C34.8337 31.0817 34.0117 29.5748 33.6693 29.0268C33.3268 28.4104 32.9158 27.246 33.2583 26.0131C33.6008 24.7802 34.9707 21.2869 34.9707 21.2869C34.9707 21.2869 35.3816 22.0404 36.0666 21.9034C36.683 21.7664 41.7517 14.1635 41.7517 14.1635C41.7517 14.1635 43.1215 17.1772 41.6832 19.3691C40.1763 21.5609 38.7379 21.9719 38.7379 21.9719C38.7379 21.9719 40.7927 22.3144 42.6421 20.9445C43.3955 22.7253 44.149 24.6432 44.2175 24.9172C44.1623 25.0275 43.8961 25.6709 43.5889 26.4137L43.5886 26.4143C43.1329 27.5159 42.5869 28.8356 42.5051 28.9583C42.4366 29.0268 41.8886 29.1638 41.5462 29.2323C41.3346 29.3028 41.1473 29.3572 40.9869 29.4038L40.9868 29.4038C40.6799 29.4929 40.4717 29.5533 40.3818 29.6433C40.1078 29.8488 38.9434 33.1365 38.3954 34.7119C37.7105 34.9174 37.094 35.2599 36.6145 36.0133C36.8508 35.8361 37.4948 35.7607 38.019 35.6994C38.1026 35.6897 38.1831 35.6802 38.2584 35.6708C38.8064 35.6708 40.3818 36.4928 40.7927 38.0681C40.8612 38.7531 40.6557 39.301 40.3818 39.712H40.3133ZM36.82 40.123C37.0644 39.7808 37.0995 39.2642 37.1245 38.8968V38.8968C37.1345 38.7494 37.1429 38.626 37.1625 38.5476C37.1625 38.2736 37.2995 37.7942 37.5735 37.7257C37.8474 37.6572 38.6009 37.7257 38.6009 38.2736C38.6009 38.6627 38.3246 38.8101 38.0418 38.9609L38.0417 38.9609C37.9263 39.0225 37.8097 39.0846 37.7105 39.1641C37.5278 39.3467 37.2538 39.6511 37.0712 39.854C36.9799 39.9555 36.9113 40.0317 36.8885 40.0545L36.82 40.123ZM51.5464 33.068C51.8889 31.1502 51.9574 29.5748 51.8204 28.2049C53.2588 30.1228 54.1492 32.4516 54.4232 34.8489C54.4232 35.1229 54.7657 35.4653 55.0397 35.7393C55.3136 35.9448 55.5876 36.2873 55.5876 36.4243C55.5876 37.2462 55.5191 38.1366 55.3821 38.9586C55.3821 39.0727 55.1443 39.1869 54.9065 39.3011C54.8589 39.3239 54.8113 39.3467 54.7657 39.3695C54.7111 39.4023 54.6565 39.4333 54.603 39.4637C54.321 39.6239 54.0698 39.7666 54.0122 40.0545C53.1903 42.9313 51.4779 45.3971 49.1491 47.1779C52.5738 43.6162 54.2177 37.6572 51.6149 32.9995L51.5464 33.068ZM49.2176 47.5889C51.6149 45.7396 53.4643 43.1368 54.2862 40.26C54.2862 40.1458 54.524 40.0317 54.7619 39.9175C54.8094 39.8947 54.857 39.8718 54.9027 39.849C54.947 39.8224 54.9925 39.7958 55.0382 39.769L55.0385 39.7689C55.346 39.5891 55.665 39.4025 55.7246 39.1641C55.8616 38.3421 55.9301 37.4517 55.9301 36.5613C55.9301 35.9387 55.7627 35.8519 55.5449 35.7389C55.4512 35.6903 55.3482 35.6369 55.2451 35.5338C55.0397 35.3284 54.7657 35.0544 54.7657 34.8489C54.4917 32.1776 53.3958 29.5748 51.7519 27.52C50.9985 23.0678 48.0532 21.6979 47.9847 21.6979C47.9891 21.7068 48.0013 21.7265 48.0198 21.7566C48.2877 22.1915 49.8869 24.7873 48.6696 27.8624C47.4768 30.7252 44.6741 30.6798 43.7886 30.6654C43.6571 30.6633 43.5679 30.6619 43.5325 30.6707C43.2585 30.6707 42.0941 32.1776 40.6557 34.9174C40.4502 34.8489 39.6968 34.6434 38.8064 34.7804L38.8978 34.5334L38.8978 34.5334C39.5738 32.7076 40.4592 30.3162 40.6557 30.0543C40.7 30.01 40.9441 29.9372 41.2222 29.8543L41.2222 29.8543L41.2225 29.8543C41.375 29.8088 41.5377 29.7603 41.6832 29.7118C41.8429 29.6639 41.9841 29.6234 42.1083 29.5877L42.1083 29.5877C42.5167 29.4706 42.7425 29.4058 42.8476 29.3008C42.8735 29.2489 42.9388 29.0988 43.0322 28.8838L43.0325 28.8832C43.1856 28.5307 43.4144 28.0043 43.6695 27.4515C44.012 27.4515 44.8339 27.383 44.9024 27.3145C44.9709 27.246 45.6559 25.3966 45.6559 25.1911C45.6559 25.0085 44.5202 22.1761 43.8827 20.586L43.8826 20.5858L43.6695 20.054C43.9435 19.7801 44.2175 19.3691 44.423 18.9581C52.0259 19.7801 57.9164 26.2186 57.9164 34.027C57.9164 41.8354 54.4232 45.1916 49.2861 47.6574L49.2176 47.5889ZM32.4368 22.6569C32.6423 22.8624 32.8478 23.2048 32.6423 23.6843C32.5053 23.9583 32.2999 23.8898 31.9574 23.7528C31.5464 23.5473 28.8751 21.9719 26.4778 20.3965C29.2176 21.3555 31.9574 22.3829 32.4368 22.5884L32.5053 22.6569H32.4368ZM70.3164 20.2639H75.385V40.5384H80.4537V15.1953H75.385C72.5767 15.1953 70.3164 17.4556 70.3164 20.2639ZM85.5234 40.534H90.5921V30.3967C90.5921 27.5884 88.3317 25.3281 85.5234 25.3281V40.534ZM100.725 40.534H95.6562V25.3281H105.793C108.602 25.3281 110.862 27.5884 110.862 30.3967V40.534C108.054 40.534 105.793 38.2736 105.793 35.4653V30.3967H100.725V40.534ZM141.277 25.3325H136.208V20.2639C136.208 17.4556 133.948 15.1953 131.139 15.1953V35.4698H121.002V30.4011H126.071V25.3325H121.002C118.194 25.3325 115.934 27.5929 115.934 30.4011V35.4698C115.934 38.278 118.194 40.5384 121.002 40.5384H136.208V30.4011H141.277V35.4698C141.277 38.278 143.537 40.5384 146.345 40.5384V30.4011C146.345 27.5929 144.085 25.3325 141.277 25.3325ZM90.5921 20.2639H85.5234V15.1953C88.3317 15.1953 90.5921 17.4556 90.5921 20.2639ZM78.2596 45.6016V48.8893H77.7801L75.9308 46.629V48.8893H75.3828V45.6016H75.8623L77.7116 47.8619V45.6016H78.2596ZM88.5338 48.8893H86.5475V45.6016H88.4653V46.1495H87.1639V46.9715H88.3283V47.5194H87.1639V48.3413H88.5338V48.8893ZM96.9587 46.1495H97.9861V48.8893H98.6026V46.1495H99.6985V45.6016H96.9587V46.1495ZM112.096 45.6016H112.576L111.617 48.8893H111.069L110.247 46.492L109.493 48.8893H108.945L107.986 45.6016H108.671L109.356 47.9304L110.11 45.6016H110.658L111.411 47.9304L112.096 45.6016ZM121.411 46.081C121.069 46.4235 120.932 46.8345 120.932 47.3139C120.932 47.7934 121.069 48.2044 121.411 48.5468C121.754 48.8893 122.165 49.0263 122.644 49.0263C123.124 49.0263 123.535 48.8893 123.877 48.5468C124.22 48.2044 124.357 47.7934 124.357 47.3139C124.357 46.8345 124.22 46.4235 123.877 46.081C123.535 45.7386 123.124 45.6016 122.644 45.6016C122.165 45.6016 121.754 45.7386 121.411 46.081ZM121.891 48.1359C121.685 47.9304 121.548 47.6564 121.548 47.3139C121.548 46.9715 121.685 46.6975 121.891 46.492C122.096 46.2865 122.37 46.1495 122.713 46.1495C123.055 46.1495 123.261 46.2865 123.535 46.492C123.74 46.6975 123.877 46.9715 123.877 47.3139C123.877 47.6564 123.809 47.9304 123.603 48.1359C123.398 48.3414 123.124 48.4783 122.781 48.4783C122.439 48.4783 122.233 48.3414 121.959 48.1359H121.891ZM133.329 47.6564V48.8893H132.713V45.6016H133.261H133.74C134.562 45.6016 134.973 45.944 134.973 46.629C134.973 47.0398 134.973 47.1303 134.929 47.1665C134.917 47.1767 134.9 47.1826 134.88 47.1902C134.852 47.2004 134.815 47.2138 134.768 47.2454C134.631 47.3824 134.494 47.5194 134.357 47.5879L135.384 48.9578H134.699L133.809 47.7249H133.398L133.329 47.6564ZM133.74 46.1495H133.672H133.535H133.329V47.1084H133.74C133.946 47.1084 134.083 47.1084 134.22 46.9715C134.357 46.903 134.425 46.766 134.425 46.629C134.425 46.2865 134.22 46.1495 133.809 46.1495H133.74ZM143.809 48.8893H144.289V47.1769L145.659 48.8893H146.412L144.974 47.1084L146.344 45.6016H145.659L144.357 47.1769V45.6016H143.809V48.8893ZM32.7806 37.3828L32.5066 38.8897C32.5066 38.8897 33.123 39.0267 33.123 39.5062C33.123 39.9856 32.5066 40.7391 32.0271 40.7391C31.5477 40.7391 31.3422 40.1911 31.4792 39.8486C31.5477 39.5062 32.7806 37.3828 32.7806 37.3828ZM38.4689 25.0515C39.7703 25.3255 40.1127 26.8323 39.4278 27.6543H39.3593C38.6744 28.4077 36.8935 29.5036 35.8661 29.7776C35.6606 30.668 33.8112 30.2571 34.4962 27.5858C34.4962 27.5858 34.8386 28.8872 35.1811 28.7502C35.5236 28.6132 39.2908 22.7227 39.2908 22.7227C39.2908 22.7227 38.8113 24.298 38.4689 25.0515ZM38.122 25.8086L36.2041 29.0963C36.2041 29.0963 37.985 28.2744 38.67 27.247C39.2179 26.3566 38.122 25.8086 38.122 25.8086Z" fill="white"/>
</svg>
