<svg width="155" height="64" viewBox="0 0 155 64" fill="none" xmlns="http://www.w3.org/2000/svg">
<g clip-path="url(#clip0_2570_18252)">
<path d="M40.1316 11.1992C38.4021 11.1992 37.0146 12.5929 37.0146 14.3302C37.0146 16.0866 38.4021 17.4994 40.1316 17.4994C41.8802 17.4994 43.2866 16.0675 43.2866 14.3302C43.2866 12.5929 41.8612 11.1992 40.1316 11.1992Z" fill="white"/>
<path d="M23.0073 30.0997L20.7266 34.0134C22.5321 35.6552 25.6871 36.6862 28.7851 36.7244C33.6886 36.7244 36.5585 34.3761 36.5585 31.0924C36.5585 26.4368 32.2407 25.7038 29.2966 25.204C27.7737 24.9455 26.6184 24.7493 26.6184 24.105C26.6184 23.4177 27.4737 22.9213 28.7471 22.9213C30.7997 22.9213 32.7573 23.8186 33.7836 24.8114L35.8743 20.9167C34.0307 19.5613 31.617 18.6258 28.7091 18.6258C23.9766 18.6258 21.3538 21.2604 21.3538 24.2959C21.3538 28.7947 25.49 29.479 28.4363 29.9664C30.0661 30.236 31.3319 30.4454 31.3319 31.207C31.3319 31.9515 30.6667 32.4097 29.0322 32.4097C27.0175 32.4097 24.2807 31.2451 23.0073 30.0997Z" fill="white"/>
<path d="M42.8876 19.0461H37.4139V36.2665H42.8876V19.0461Z" fill="white"/>
<path d="M66.5119 25.7846V36.2657H71.9476V23.78C71.9476 20.2481 69.952 18.6063 66.797 18.6063C64.0982 18.6063 61.8555 20.1908 60.8672 21.68C60.145 19.6372 58.4914 18.6063 56.0017 18.6063C53.3028 18.6063 51.0981 20.1526 50.3569 21.1454C50.2049 21.3172 49.9958 21.5654 49.7867 21.8327L50.3569 20.5536V19.0454H44.8832V36.2848H50.3569V25.1546C50.9081 24.4291 51.9534 23.4745 53.4359 23.4745C55.0704 23.4745 55.6786 24.4673 55.6786 25.7846V36.2848H61.1523V25.1546C61.6844 24.4291 62.7488 23.4745 64.2312 23.4745C65.8657 23.4745 66.5119 24.4673 66.5119 25.7846Z" fill="white"/>
<path fill-rule="evenodd" clip-rule="evenodd" d="M79.4551 34.2234C79.322 34.0516 79.227 33.8416 79.1319 33.6316L79.4551 35.5407V42.8336H73.9813V19.0458H79.4551V21.0504C80.8045 19.4085 82.572 18.6258 84.5296 18.6258C88.825 18.6258 92.056 21.8331 92.056 27.6369C92.056 33.4788 88.825 36.6862 84.5296 36.6862C82.61 36.6862 80.8805 35.9416 79.4551 34.2234ZM86.4872 27.6369C86.4872 25.0787 84.8527 23.475 82.7241 23.475C81.5457 23.475 80.1393 24.1241 79.4551 25.0405V30.2715C80.1203 31.1688 81.5457 31.837 82.7241 31.837C84.8527 31.837 86.4872 30.2333 86.4872 27.6369Z" fill="white"/>
<path d="M92.9489 12.4781V36.2468H98.4226V12.4781H92.9489Z" fill="white"/>
<path fill-rule="evenodd" clip-rule="evenodd" d="M99.3349 27.6369C99.3349 22.6541 103.06 18.6258 108.42 18.6258C113.494 18.6258 117.181 22.3677 117.181 28.2096V29.4506H105.398L104.942 28.8396C104.923 29.0306 104.923 29.2215 104.98 29.4506C105.379 30.9779 106.785 32.2761 109.275 32.2761C110.472 32.2761 112.468 31.7415 113.456 30.806L115.832 34.4143C114.121 35.9416 111.29 36.7053 108.667 36.7053C103.364 36.6862 99.3349 33.2306 99.3349 27.6369ZM108.42 23.0359C106.044 23.0359 105.113 24.4677 104.904 25.7087H111.955C111.822 24.4868 110.928 23.0359 108.42 23.0359Z" fill="white"/>
<path d="M125.05 31.0545L128.319 36.2665H134.325L128.471 27.4272L133.945 19.0461H127.939L125.24 23.3798V24.048L125.031 23.7235L122.085 19.0461H116.079L121.572 27.4272L115.718 36.2665H121.686L125.05 31.0545Z" fill="white"/>
<path d="M112.714 47.2052C112.714 46.5179 112.353 46.2697 111.802 46.2697C111.269 46.2697 110.927 46.5561 110.718 46.8234V50.4507H108.913V44.8188H110.699V45.3152L110.471 45.7352C110.813 45.3343 111.687 44.6852 112.619 44.6852C113.892 44.6852 114.481 45.4297 114.481 46.4607V50.4507H112.714V47.2052Z" fill="white"/>
<path d="M116.706 50.6031C117.637 50.6031 118.473 50.0303 118.815 49.6294L118.644 50.0494V50.4694H120.431V44.8375H118.644V48.4649C118.435 48.7321 118.093 49.0185 117.58 49.0185C116.991 49.0185 116.649 48.7703 116.649 48.1021V44.8375H114.862V48.8467C114.862 49.8776 115.432 50.6031 116.706 50.6031Z" fill="white"/>
<path fill-rule="evenodd" clip-rule="evenodd" d="M129.25 44.6852C130.903 44.6852 132.12 45.907 132.12 47.8161V48.198H128.261L128.109 47.988C128.109 48.0643 128.128 48.1598 128.147 48.2361C128.28 48.7325 128.756 49.1907 129.573 49.1907C130.067 49.1907 130.637 48.9998 130.941 48.7134L131.702 49.8398C131.15 50.3362 130.219 50.5844 129.364 50.5844C127.634 50.5844 126.304 49.458 126.304 47.6252C126.285 46.0025 127.501 44.6852 129.25 44.6852ZM128.109 47.0525H130.409C130.371 46.6516 130.067 46.0788 129.25 46.0788C128.471 46.0788 128.185 46.6325 128.109 47.0525Z" fill="white"/>
<path d="M134.266 44.8375H132.479V50.4694H134.266V44.8375Z" fill="white"/>
<path d="M124.841 44.8383L123.644 48.1793L123.682 48.6947L122.313 44.8383H120.793V45.7356L122.636 50.4511H124.537L126.742 44.8383H124.841Z" fill="white"/>
<path d="M133.373 42.0711C132.803 42.0711 132.347 42.5293 132.347 43.102C132.347 43.6748 132.803 44.1139 133.373 44.133C133.944 44.133 134.4 43.6748 134.4 43.102C134.4 42.5293 133.944 42.0711 133.373 42.0711Z" fill="white"/>
<path fill-rule="evenodd" clip-rule="evenodd" d="M92.9476 50.5091V42.7008H94.1639V45.6408C94.6201 45.0299 95.2663 44.7245 95.9695 44.7245C97.433 44.7245 98.4783 45.8699 98.4783 47.6836C98.4783 49.5546 97.4139 50.6619 95.9695 50.6619C95.2473 50.6619 94.6011 50.3182 94.1639 49.7455V50.5091H92.9476ZM95.6274 49.5546C96.5967 49.5546 97.2049 48.7718 97.2049 47.6645C97.2049 46.5763 96.5777 45.7936 95.6274 45.7936C95.0382 45.7936 94.449 46.1372 94.1639 46.5572V48.81C94.449 49.23 95.0382 49.5546 95.6274 49.5546Z" fill="white"/>
<path d="M100.207 51.7119C100.055 51.7119 99.865 51.6738 99.732 51.6165L99.5799 52.7238C99.732 52.762 100.093 52.8001 100.264 52.8001C101.138 52.7811 101.804 52.4756 102.184 51.521L104.902 44.8391H103.59L101.937 49.0773L100.302 44.8391H98.9907L101.309 50.5665L101.024 51.2156C100.853 51.5974 100.606 51.7119 100.207 51.7119Z" fill="white"/>
</g>
<defs>
<clipPath id="clip0_2570_18252">
<rect width="113.674" height="41.6" fill="white" transform="translate(20.7266 11.1992)"/>
</clipPath>
</defs>
</svg>
