<svg width="261" height="64" viewBox="0 0 261 64" fill="none" xmlns="http://www.w3.org/2000/svg">
<g clip-path="url(#clip0_2570_18207)">
<path d="M78.1938 24.1388H80.6175L87.3951 39.8622H84.1958L82.7328 36.2663H75.9111L74.4921 39.8622H71.3633L78.1938 24.1388ZM81.7457 33.869L79.3219 27.4703L76.8541 33.869H81.7457ZM96.5701 39.8622H98.9938L105.348 24.1388H102.325L97.9097 36.0195L93.6175 24.1388H90.4006L96.5701 39.8622ZM115.343 24.1388H117.767L124.535 39.8622H121.336L119.873 36.2663H113.051L111.632 39.8622H108.504L115.343 24.1388ZM118.895 33.869L116.471 27.4703L114.003 33.869H118.895ZM130.731 39.8622H140.215V37.3327H133.534V24.1388H130.731V39.8622ZM151.778 24.1388H154.202L160.971 39.8622H157.771L156.308 36.2663H149.487L148.068 39.8622H144.939L151.778 24.1388ZM155.33 33.869L152.906 27.4703L150.439 33.869H155.33ZM167.158 39.8622H169.961V27.8052H170.005L177.778 39.8622H181.33V24.1388H178.527V35.8256H178.483L170.868 24.1388H167.158V39.8622ZM202.253 26.2276C201.469 25.3198 200.614 24.6852 199.698 24.3151C198.79 23.9273 197.811 23.7422 196.745 23.7422C195.529 23.7422 194.409 23.9449 193.396 24.3415C192.391 24.7293 191.519 25.2846 190.778 26.0073C190.055 26.73 189.483 27.6113 189.068 28.6513C188.654 29.6737 188.451 30.8107 188.451 32.071C188.451 33.3313 188.663 34.4154 189.068 35.4202C189.483 36.4249 190.055 37.2886 190.778 38.0202C191.519 38.7341 192.391 39.2893 193.396 39.6859C194.418 40.0737 195.538 40.2588 196.745 40.2588C197.961 40.2588 198.992 40.0385 200.006 39.589C201.028 39.1483 201.892 38.4344 202.606 37.4561L200.297 35.808C199.777 36.4778 199.213 36.9625 198.605 37.271C198.014 37.5707 197.397 37.7117 196.763 37.7117C195.943 37.7117 195.203 37.5618 194.542 37.271C193.889 36.9713 193.325 36.5659 192.849 36.0547C192.373 35.5347 192.003 34.9266 191.739 34.2127C191.483 33.4988 191.36 32.7232 191.36 31.8771C191.36 31.0927 191.483 30.3612 191.739 29.6737C192.003 28.9951 192.373 28.4046 192.849 27.8934C193.325 27.3734 193.889 26.9768 194.542 26.6947C195.211 26.3951 195.952 26.2541 196.763 26.2541C197.309 26.2541 197.847 26.3598 198.384 26.5625C198.931 26.7741 199.495 27.1795 200.068 27.8052L202.253 26.2276ZM208.925 39.8622H211.728V32.9347H219.079V39.8622H221.881V24.1388H219.079V30.4052H211.728V24.1388H208.925V39.8622ZM229.831 39.8622H240.645V37.3327H232.625V33.0669H239.843V30.5374H232.625V26.6771H240.249V24.1476H229.831V39.8622Z" fill="white"/>
<path fill-rule="evenodd" clip-rule="evenodd" d="M41.2599 11.1992C29.7759 11.1992 20.4688 20.5152 20.4688 31.9992C20.4688 43.4833 29.7847 52.7992 41.2687 52.7992C52.7528 52.7992 62.0687 43.4833 62.0687 31.9992C62.0687 20.5152 52.7528 11.1992 41.2599 11.1992ZM39.4972 37.8867L39.4796 37.9131C39.0213 38.724 38.7833 39.1294 38.4572 39.4379C38.1047 39.7728 37.6816 40.0196 37.2145 40.1606C36.7915 40.2752 36.3155 40.2752 35.3637 40.2752H31.3271C30.481 40.2752 30.0579 40.2752 29.8023 40.1077C29.5291 39.9314 29.3528 39.6318 29.3352 39.3057C29.3176 39.006 29.5291 38.6358 29.9521 37.9043L39.9203 20.3389C40.3433 19.5897 40.5637 19.2196 40.8281 19.0785C41.1189 18.9287 41.4715 18.9287 41.7623 19.0785C42.0355 19.2196 42.2471 19.5897 42.6701 20.3389L44.7149 23.9172L44.7237 23.9348C45.182 24.7368 45.4111 25.1423 45.5169 25.5653C45.6315 26.0324 45.6315 26.5172 45.5169 26.9843C45.4199 27.4162 45.182 27.8216 44.7149 28.6324L39.4972 37.8867ZM52.885 40.1077C52.6294 40.2752 52.1976 40.2752 51.3426 40.2752H45.561C44.706 40.2752 44.283 40.2752 44.0274 40.1077C43.7542 39.9314 43.5779 39.6229 43.5603 39.2968C43.5426 38.9972 43.7542 38.6358 44.1772 37.9043L44.186 37.8867L47.0769 32.9335C47.4999 32.2019 47.7115 31.8406 47.9847 31.6996C48.2755 31.5497 48.6193 31.5497 48.9101 31.6996C49.1745 31.8318 49.3772 32.1843 49.7915 32.8718L49.8267 32.9246L52.7264 37.8779C52.7352 37.9043 52.7528 37.9219 52.7704 37.9484C53.1759 38.6446 53.3786 38.9972 53.361 39.288C53.3345 39.6229 53.1582 39.9226 52.885 40.1077Z" fill="white"/>
</g>
<defs>
<clipPath id="clip0_2570_18207">
<rect width="220.339" height="41.6" fill="white" transform="translate(20.3906 11.1992)"/>
</clipPath>
</defs>
</svg>
