<svg width="305" height="64" viewBox="0 0 305 64" fill="none" xmlns="http://www.w3.org/2000/svg">
<path d="M26.3062 36.1917C26.3062 37.6249 26.0195 38.8432 25.4463 39.8464C24.873 40.8497 24.1564 41.638 23.2248 42.1396C22.2932 42.7129 21.2182 42.9995 20 42.9995V40.7064C21.1466 40.7064 22.0782 40.2047 22.7948 39.4881C23.5114 38.7715 23.9414 37.6249 23.9414 36.12V21.7161H26.3062V36.1917ZM30.7492 39.4164L38.4886 20.9995H38.6319L46.3713 39.4164H43.6482L37.9153 24.7259L39.5635 23.651L33.114 39.4164H30.8208H30.7492ZM35.2638 32.6803H41.8567L42.645 34.7585H34.6189L35.3355 32.6803H35.2638ZM55.8306 21.7161C57.1205 21.7161 58.1954 21.9311 59.127 22.3611C60.0586 22.791 60.7036 23.436 61.2052 24.2243C61.7068 25.0125 61.9935 26.0158 61.9935 27.1624C61.9935 28.309 61.8502 28.5239 61.7068 29.2406C61.4919 29.8855 61.1336 30.5305 60.7036 31.1037C60.2736 31.677 59.6287 32.0353 58.9121 32.3936C58.1954 32.752 57.2638 32.8953 56.1889 32.8953H53.5375V39.4164H51.1726V21.7161H55.9023H55.8306ZM56.1173 30.6021C56.8339 30.6021 57.4072 30.4588 57.8371 30.2438C58.2671 30.0288 58.6254 29.7422 58.9121 29.3839C59.1987 29.0256 59.342 28.6673 59.4853 28.2373C59.6287 27.879 59.6287 27.5207 59.6287 27.1624C59.6287 26.8041 59.6287 26.4458 59.4853 26.0875C59.342 25.7292 59.1987 25.3708 58.9121 25.0125C58.6254 24.6542 58.3388 24.4393 57.8371 24.2243C57.4072 24.0093 56.9055 23.9376 56.2606 23.9376H53.5375V30.5305H56.1173V30.6021ZM63.7134 39.4164L71.4528 20.9995H71.5961L79.3355 39.4164H76.6124L70.8078 24.7259L72.456 23.651L66.0065 39.4164H63.7134ZM68.228 32.6803H74.8208L75.6091 34.7585H67.5831L68.2997 32.6803H68.228ZM99.329 39.9897L85.6417 26.1591L86.3583 26.3024V39.4164H84.0651V21.2145H84.2085L97.7524 35.1168L97.1792 34.9735V21.7161H99.4723V39.9181H99.4007L99.329 39.9897ZM142.326 21.7161C143.616 21.7161 144.691 21.9311 145.622 22.3611C146.554 22.791 147.199 23.436 147.7 24.2243C148.202 25.0125 148.489 26.0158 148.489 27.1624C148.489 28.309 148.417 28.5239 148.202 29.2406C147.987 29.8855 147.629 30.5305 147.199 31.1037C146.769 31.677 146.124 32.0353 145.407 32.3936C144.619 32.752 143.759 32.8953 142.684 32.8953H140.104V39.4164H137.739V21.7161H142.469H142.326ZM142.541 30.6021C143.257 30.6021 143.831 30.4588 144.261 30.2438C144.691 30.0288 145.049 29.7422 145.336 29.3839C145.622 29.0256 145.765 28.6673 145.909 28.2373C146.052 27.879 146.052 27.5207 146.052 27.1624C146.052 26.8041 146.052 26.4458 145.909 26.0875C145.765 25.7292 145.622 25.3708 145.336 25.0125C145.049 24.6542 144.691 24.4393 144.261 24.2243C143.831 24.0093 143.329 23.9376 142.684 23.9376H139.961V30.5305H142.541V30.6021ZM153.577 21.7161H165.042V24.0093H155.941V29.3839H164.111V31.677H155.941V37.1233H165.401V39.4164H153.577V21.7161ZM186.326 39.9897L172.638 26.1591L173.355 26.3024V39.4164H171.062V21.2145H171.205L184.749 35.1168L184.176 34.9735V21.7161H186.469V39.9181H186.397L186.326 39.9897ZM215.134 38.1265C214.847 38.3415 214.417 38.5565 213.915 38.7715C213.414 38.9865 212.84 39.2015 212.124 39.3448C211.479 39.4881 210.691 39.5598 209.902 39.5598C208.541 39.5598 207.322 39.2731 206.176 38.8432C205.101 38.3415 204.169 37.6966 203.381 36.9083C202.593 36.12 202.02 35.1884 201.59 34.1135C201.16 33.0386 200.945 31.892 200.945 30.6738C200.945 29.4555 201.16 28.1656 201.59 27.0191C202.02 25.8725 202.665 24.9409 203.453 24.0809C204.241 23.221 205.173 22.5761 206.248 22.1461C207.322 21.7161 208.469 21.4295 209.759 21.4295C211.049 21.4295 211.765 21.5728 212.625 21.8594C213.485 22.1461 214.202 22.5044 214.847 22.8627L213.915 25.0842C213.414 24.7259 212.84 24.4393 212.124 24.1526C211.407 23.866 210.691 23.7226 209.831 23.7226C208.971 23.7226 208.182 23.866 207.394 24.2243C206.606 24.5826 205.961 25.0125 205.388 25.6575C204.814 26.3024 204.313 27.0191 204.026 27.8073C203.668 28.5956 203.524 29.5272 203.524 30.4588C203.524 31.3904 203.668 32.322 203.954 33.1819C204.241 33.9702 204.671 34.6868 205.244 35.3318C205.818 35.9051 206.534 36.4067 207.322 36.765C208.111 37.1233 209.042 37.2666 210.046 37.2666C211.049 37.2666 211.765 37.1233 212.41 36.8366C213.127 36.55 213.7 36.2634 214.13 35.9051L215.134 37.9832V38.1265ZM234.554 21.7161V39.4164H232.189V31.677H222.945V39.4164H220.58V21.7161H222.945V29.3839H232.189V21.7161H234.554ZM239.355 39.4164L247.094 20.9995H247.238L254.977 39.4164H252.254L246.521 24.7259L248.241 23.651L241.792 39.4164H239.498H239.355ZM243.87 32.6803H250.463L251.251 34.7585H243.225L243.941 32.6803H243.87ZM259.778 21.7161H262.143V39.4164H259.778V21.7161ZM284 39.9897L270.313 26.1591L271.029 26.3024V39.4164H268.736V21.2145H268.879L282.423 35.1168L281.85 34.9735V21.7161H284.143V39.9181H284.072L284 39.9897Z" fill="white"/>
<path d="M114.091 30.6016C114.091 29.3833 114.306 28.2368 114.808 27.1618C115.31 26.0869 115.954 25.0837 116.743 24.2954C117.603 23.4355 118.534 22.7905 119.609 22.2889C120.684 21.7872 121.902 21.5723 123.121 21.5723C124.339 21.5723 125.485 21.7872 126.56 22.2889C127.635 22.7905 128.639 23.4355 129.427 24.2954C130.287 25.1553 130.932 26.0869 131.433 27.1618C131.935 28.2368 132.15 29.3833 132.15 30.6016C132.15 31.8198 131.935 33.0381 131.433 34.113C130.932 35.1879 130.287 36.1912 129.427 36.9794C128.567 37.7677 127.635 38.4127 126.56 38.9143C125.485 39.3443 124.339 39.6309 123.121 39.6309C121.902 39.6309 120.684 39.4159 119.609 38.9143C118.534 38.4843 117.603 37.8394 116.743 36.9794C115.883 36.1195 115.238 35.1879 114.808 34.113C114.378 33.0381 114.091 31.8198 114.091 30.5299V30.6016ZM116.528 30.6016C116.528 31.5332 116.671 32.3931 117.029 33.253C117.388 34.0413 117.818 34.7579 118.463 35.4029C119.036 36.0478 119.753 36.4778 120.541 36.8361C121.329 37.1944 122.189 37.3377 123.121 37.3377C124.052 37.3377 124.912 37.1944 125.7 36.8361C126.489 36.4778 127.205 35.9762 127.779 35.4029C128.352 34.7579 128.854 34.113 129.14 33.253C129.498 32.4648 129.642 31.5332 129.642 30.6016C129.642 29.67 129.498 28.8101 129.14 28.0218C128.782 27.1618 128.352 26.4452 127.707 25.8719C127.134 25.227 126.417 24.797 125.629 24.4387C124.84 24.0804 123.981 23.8654 123.049 23.8654C122.117 23.8654 121.257 24.0087 120.469 24.4387C119.681 24.797 118.964 25.2987 118.391 25.8719C117.818 26.5169 117.316 27.2335 117.029 28.0218C116.743 28.8101 116.528 29.67 116.528 30.6732V30.6016Z" fill="white"/>
</svg>
