<svg width="239" height="64" viewBox="0 0 239 64" fill="none" xmlns="http://www.w3.org/2000/svg">
<g clip-path="url(#clip0_2150_797)">
<path d="M25.5349 19.6932C25.5349 18.7815 26.2512 18.1304 27.0977 18.1304H35.0419C35.8884 18.1304 36.6047 18.8467 36.6047 19.6932V38.8373C36.6047 39.749 37.3209 40.4001 38.1674 40.4001H40.5767C41.4233 40.4001 42.1395 39.6839 42.1395 38.8373V19.6932C42.1395 18.7815 42.8558 18.1304 43.7023 18.1304H46.1116C46.9581 18.1304 47.6744 18.8467 47.6744 19.6932V39.6187C47.6744 40.5304 46.9581 41.1815 46.1116 41.1815H43.7023C42.8558 41.1815 42.1395 41.8978 42.1395 42.7443V44.3071C42.1395 45.2187 41.4233 45.8699 40.5767 45.8699H32.6326C31.786 45.8699 31.0698 45.1536 31.0698 44.3071V25.2932C31.0698 24.3815 30.3535 23.7304 29.507 23.7304H27.0977C26.2512 23.7304 25.5349 24.4467 25.5349 25.2932V44.4373C25.5349 45.349 24.8186 46.0001 23.9721 46.0001H21.5628C20.7163 46.0001 20 45.2839 20 44.4373V24.5769C20 23.6653 20.7163 23.0141 21.5628 23.0141H23.9721C24.8186 23.0141 25.5349 22.2978 25.5349 21.4513V19.7583V19.6932Z" fill="white"/>
<path d="M58.9397 19.5628C58.9397 18.6512 59.6559 18 60.5025 18H79.5815C80.428 18 81.1443 18.7163 81.1443 19.5628V21.9721C81.1443 22.8837 80.428 23.5349 79.5815 23.5349H60.5025C59.6559 23.5349 58.9397 24.2512 58.9397 25.0977V27.507C58.9397 28.4186 59.6559 29.0698 60.5025 29.0698H79.5815C80.428 29.0698 81.1443 29.786 81.1443 30.6326V33.0419C81.1443 33.9535 80.428 34.6047 79.5815 34.6047H60.5025C59.6559 34.6047 58.9397 35.3209 58.9397 36.1674V38.5767C58.9397 39.4884 59.6559 40.1395 60.5025 40.1395H79.5815C80.428 40.1395 81.1443 40.8558 81.1443 41.7023V44.1116C81.1443 45.0233 80.428 45.6744 79.5815 45.6744H60.5025C59.6559 45.6744 58.9397 44.9581 58.9397 44.1116V42.5488C58.9397 41.6372 58.2234 40.986 57.3769 40.986H54.9676C54.1211 40.986 53.4048 40.2698 53.4048 39.4233V24.3814C53.4048 23.4698 54.1211 22.8186 54.9676 22.8186H57.3769C58.2234 22.8186 58.9397 22.1023 58.9397 21.2558V19.693V19.5628Z" fill="white"/>
<path fill-rule="evenodd" clip-rule="evenodd" d="M93.9722 18C93.1257 18 92.4094 18.7163 92.4094 19.5628V21.1256C92.4094 22.0372 91.6931 22.6884 90.8466 22.6884H88.4373C87.5908 22.6884 86.8745 23.4047 86.8745 24.2512V44.1767C86.8745 45.0884 87.5908 45.7395 88.4373 45.7395H90.8466C91.6931 45.7395 92.4094 45.0233 92.4094 44.1767V42.1581C92.4094 41.2465 93.1257 40.5953 93.9722 40.5953H96.3815C97.228 40.5953 97.9443 41.3116 97.9443 42.1581V44.1767C97.9443 45.0884 98.6606 45.7395 99.5071 45.7395H113.051C113.898 45.7395 114.614 45.0233 114.614 44.1767V41.7674C114.614 40.8558 113.898 40.2046 113.051 40.2046H99.9629C99.1164 40.2046 98.4001 39.4884 98.4001 38.6419V36.2326C98.4001 35.3209 99.1164 34.6698 99.9629 34.6698H107.516C108.363 34.6698 109.079 33.9535 109.079 33.107V30.893C109.079 29.9814 109.795 29.3302 110.642 29.3302H113.051C113.898 29.3302 114.614 28.614 114.614 27.7674V24.3814C114.614 23.4698 113.898 22.8186 113.051 22.8186H110.642C109.795 22.8186 109.079 22.1023 109.079 21.2558V19.693C109.079 18.7814 108.363 18.1302 107.516 18.1302H93.9722V18ZM92.3443 32.7163C92.3443 33.6279 93.0606 34.2791 93.9071 34.2791H96.3164C97.1629 34.2791 97.8792 33.5628 97.8792 32.7163V30.6977C97.8792 29.786 98.5954 29.1349 99.442 29.1349H107.386C108.233 29.1349 108.949 28.4186 108.949 27.5721V25.1628C108.949 24.2512 108.233 23.6 107.386 23.6H93.842C92.9954 23.6 92.2792 24.3163 92.2792 25.1628V32.7163H92.3443Z" fill="white"/>
<path fill-rule="evenodd" clip-rule="evenodd" d="M127.377 18C126.53 18 125.814 18.7163 125.814 19.5628V21.1256C125.814 22.0372 125.098 22.6884 124.251 22.6884H121.842C120.996 22.6884 120.279 23.4047 120.279 24.2512V39.4233C120.279 40.3349 120.996 40.986 121.842 40.986H124.251C125.098 40.986 125.814 41.7023 125.814 42.5488V44.1116C125.814 45.0233 126.53 45.6744 127.377 45.6744H140.921C141.768 45.6744 142.484 44.9581 142.484 44.1116V42.5488C142.484 41.6372 143.2 40.986 144.047 40.986H146.456C147.303 40.986 148.019 40.2698 148.019 39.4233V24.3814C148.019 23.4698 147.303 22.8186 146.456 22.8186H144.047C143.2 22.8186 142.484 22.1023 142.484 21.2558V19.693C142.484 18.7814 141.768 18.1302 140.921 18.1302H127.377V18ZM142.484 25.1628C142.484 24.2512 141.768 23.6 140.921 23.6H127.377C126.53 23.6 125.814 24.3163 125.814 25.1628V38.707C125.814 39.6186 126.53 40.2698 127.377 40.2698H140.921C141.768 40.2698 142.484 39.5535 142.484 38.707V25.1628Z" fill="white"/>
<path d="M205.517 37.9906V25.6836H208.447L213.2 37.5999V25.6836H214.763V37.9906H211.703L207.079 26.1394V37.9906H205.517Z" fill="white"/>
<path d="M196.531 37.9909V36.5583H199.07V27.1816H196.531V25.749H203.238V27.1816H200.698V36.5583H203.238V37.9909H196.531Z" fill="white"/>
<path d="M193.796 37.9906L192.884 34.7999H187.74L186.763 37.9906H185.07L188.912 25.6836H191.777L195.554 37.9906H193.861H193.796ZM188.131 33.4324H192.428L190.28 26.1394L188.131 33.4324Z" fill="white"/>
<path d="M181.945 37.9906V32.4557H176.084V37.9906H174.521V25.6836H176.084V30.8929H181.945V25.6836H183.508V37.9906H181.945Z" fill="white"/>
<path d="M167.619 38.1208C164.558 38.1208 162.8 36.2325 162.8 32.8464V30.7627C162.8 27.4418 164.558 25.4883 167.619 25.4883C170.679 25.4883 172.177 27.2464 172.372 29.9162H170.81C170.614 28.2232 169.768 26.986 167.619 26.986C165.47 26.986 164.363 28.4185 164.363 30.7627V32.8464C164.363 35.1255 165.275 36.6232 167.619 36.6232C169.963 36.6232 170.614 35.4511 170.744 33.8232H172.307C172.047 36.4278 170.484 38.1208 167.554 38.1208H167.619Z" fill="white"/>
<path fill-rule="evenodd" clip-rule="evenodd" d="M161.953 20.8647H215.609C217.237 20.8647 218.605 22.2322 218.605 23.8601V39.8136C218.605 41.4415 217.302 42.8089 215.609 42.8089H161.953C160.325 42.8089 158.958 41.4415 158.958 39.8136V23.8601C158.958 22.2322 160.325 20.8647 161.953 20.8647ZM161.953 22.2973C161.107 22.2973 160.391 23.0136 160.391 23.8601V39.8136C160.391 40.7252 161.107 41.3764 161.953 41.3764H215.609C216.456 41.3764 217.172 40.6601 217.172 39.8136V23.8601C217.172 22.9485 216.456 22.2973 215.609 22.2973H161.953Z" fill="white"/>
</g>
<defs>
<clipPath id="clip0_2150_797">
<rect width="198.605" height="28" fill="white" transform="translate(20 18)"/>
</clipPath>
</defs>
</svg>
