<svg width="198" height="64" viewBox="0 0 198 64" fill="none" xmlns="http://www.w3.org/2000/svg">
<g clip-path="url(#clip0_2150_859)">
<path d="M87.2742 43.2756C85.0454 43.2756 83.1326 42.7748 81.5332 41.7706C79.9339 40.7664 78.7044 39.4157 77.8447 37.7171C76.9838 36.0186 76.5539 34.1327 76.5539 32.0582C76.5539 29.9837 76.9948 28.099 77.8777 26.3992C78.7595 24.7007 80.0122 23.3499 81.6336 22.3457C83.255 21.3416 85.1569 20.8407 87.3416 20.8407C89.7026 20.8407 91.7477 21.4199 93.4793 22.5784C95.2109 23.7369 96.4845 25.2322 97.3014 27.063H94.5876C93.9263 25.8935 93.0042 24.9676 91.8249 24.2831C90.6444 23.5998 89.2165 23.2569 87.54 23.2569C85.7753 23.2569 84.2531 23.6487 82.9734 24.4313C81.6936 25.215 80.7176 26.267 80.0453 27.5908C79.3718 28.9146 79.0362 30.4025 79.0362 32.0582C79.0362 33.7138 79.3669 35.1748 80.0282 36.5084C80.6895 37.8432 81.6545 38.9025 82.9232 39.6851C84.1906 40.4688 85.7079 40.8595 87.4726 40.8595C88.7952 40.8595 90.048 40.5729 91.2285 39.9986C92.4078 39.4255 93.3679 38.5988 94.1076 37.5175C94.846 36.4374 95.2158 35.1356 95.2158 33.6134H87.2081V31.3626H97.4997V43.0111H95.2158V39.1401C94.7529 39.8455 94.1565 40.5129 93.4279 41.1411C92.6993 41.7694 91.8224 42.2825 90.7974 42.6805C89.7712 43.0785 88.5968 43.2769 87.2742 43.2769V43.2756ZM100.774 43.0123V26.4666H103.257V30.536C103.345 30.2494 103.515 29.8698 103.77 29.3946C104.023 28.9207 104.393 28.4407 104.878 27.9545C105.363 27.4695 105.975 27.0556 106.714 26.7127C107.452 26.3711 108.329 26.1996 109.345 26.1996H109.511V28.6807H109.213C107.978 28.6807 106.913 29.0162 106.021 29.6898C105.127 30.3633 104.443 31.234 103.969 32.3043C103.494 33.3746 103.258 34.5172 103.258 35.7296V43.0087H100.776V43.0111L100.774 43.0123ZM118.213 43.2756C116.603 43.2756 115.195 42.8948 113.994 42.1343C112.792 41.3738 111.86 40.3415 111.197 39.0397C110.536 37.7379 110.205 36.3051 110.205 34.7376C110.205 33.1701 110.536 31.7104 111.197 30.4196C111.858 29.1289 112.79 28.1039 113.994 27.3422C115.197 26.5817 116.603 26.2008 118.213 26.2008C119.581 26.2008 120.755 26.4654 121.736 26.9944C122.718 27.5234 123.517 28.241 124.135 29.1448V26.4654H126.616V43.0099H124.135V40.3623C123.517 41.2452 122.718 41.9506 121.736 42.4809C120.755 43.0099 119.58 43.2744 118.213 43.2744V43.2756ZM118.544 41.026C119.779 41.026 120.82 40.7395 121.671 40.1651C122.52 39.592 123.165 38.8254 123.607 37.8653C124.048 36.9064 124.269 35.8643 124.269 34.7376C124.269 33.611 124.048 32.5431 123.607 31.594C123.165 30.645 122.521 29.8857 121.671 29.3101C120.823 28.737 119.779 28.4492 118.544 28.4492C117.308 28.4492 116.283 28.737 115.4 29.3101C114.517 29.8833 113.845 30.645 113.382 31.594C112.919 32.5431 112.687 33.5914 112.687 34.7376C112.687 35.8839 112.919 36.9052 113.382 37.8653C113.845 38.8242 114.518 39.592 115.4 40.1651C116.282 40.7382 117.33 41.026 118.544 41.026ZM134.847 43.0123L128.361 26.4678H131.075L136.303 40.366L141.499 26.4678H144.213L137.76 43.0123H134.847ZM145.855 23.6867V20.4439H148.536V23.6867H145.855ZM145.955 43.0123V26.4666H148.436V43.0111H145.955V43.0123ZM153.73 43.0123V28.6513H150.355V26.4678H153.73V20.5456H156.213V26.4678H160.018V28.6513H156.213V43.0123H153.73ZM165.378 49.5628L168.389 42.7797L161.639 26.4666H164.386L169.713 40.0329L175.139 26.4666H177.853L168.057 49.564H165.378V49.5628ZM69.5749 17.7975C69.2173 17.1803 68.4213 16.977 67.8114 17.3481L35.0738 37.2309C34.2398 35.672 33.7671 33.8914 33.7671 32.0006C33.7671 25.8604 38.7501 20.8836 44.8976 20.8836C47.5367 20.8836 49.9602 21.8032 51.8682 23.3365L44.9038 28.1112L63.0036 17.6726C63.3942 17.4485 63.5277 16.9489 63.3012 16.5607C63.0636 16.1504 62.526 16.028 62.1341 16.2974L57.7022 19.3356C54.4349 16.0414 49.9063 14 44.8964 14C34.944 14 26.8762 22.0592 26.8762 31.9994C26.8762 35.2005 27.7138 38.2057 29.1797 40.8093L20 46.3849L29.4246 41.2318C32.5719 46.4829 38.3227 50 44.8976 50C54.8513 50 62.9191 41.9408 62.9191 31.9994V29.8502C62.9191 28.1663 63.6036 26.0122 66.0271 24.7154C66.2353 24.6039 66.31 24.3443 66.1925 24.1398C66.0774 23.9402 65.8226 23.8716 65.623 23.988L44.1323 36.3811C46.5313 35.3622 48.3645 34.7425 50.7954 34.2551C55.8592 33.2387 55.9878 35.65 54.032 38.3698C52.7229 40.1908 49.7643 43.1152 44.8989 43.1152C40.9311 43.1152 37.4495 41.0419 35.4779 37.9204L69.0838 19.5475C69.7108 19.2058 69.9324 18.4147 69.5749 17.7975Z" fill="white"/>
</g>
<defs>
<clipPath id="clip0_2150_859">
<rect width="157.853" height="36" fill="white" transform="translate(20 14)"/>
</clipPath>
</defs>
</svg>
