<svg width="178" height="64" viewBox="0 0 178 64" fill="none" xmlns="http://www.w3.org/2000/svg">
<path fill-rule="evenodd" clip-rule="evenodd" d="M95.9994 43.9325H103.042L106.065 34.7858L99.1144 35.3863L95.9994 43.9325ZM109.304 29.1615L108.614 27.0752L107.875 29.3121L101.066 30.0296L104.785 19.8262H112.511L121.263 43.9325H114.187L111.022 34.3577L111.048 34.3555L109.315 29.1603L109.304 29.1615ZM33.6239 37.1618L33.6022 37.1302L29.6024 43.9347H21.9788L29.8075 31.5908L21.7053 19.8283H29.6024L34.1492 26.4618L38.0464 19.8283H45.67L37.9439 31.967L40.9701 36.3628L33.6395 37.1353L33.6239 37.1618ZM36.1456 40.8253L38.2857 43.9347H46.1828L43.599 40.1815L36.1456 40.8253ZM48.3589 39.7704L46.8411 43.9347H53.8834L55.463 39.1567L48.3589 39.7704ZM61.7998 34.1677L59.456 27.0773L56.943 34.6795L49.9455 35.4169L55.627 19.8283H63.3532L68.3098 33.4816L61.7998 34.1677ZM63.2272 38.4861L65.0283 43.9347H72.1047L69.9171 37.9082L63.2272 38.4861ZM73.2631 37.6192V43.9347H79.9636V37.0404L73.2631 37.6192ZM79.9685 37.0387L88.1341 36.3441V43.9347H94.8346V19.8283H88.1341V31.3788L79.9636 32.2277V19.8283H73.2631V32.9596L79.9685 32.253V37.0387ZM127.279 27.2817V19.8283H120.613V27.9788L127.279 27.2817ZM127.279 32.9726V33.8134C127.279 35.1127 127.575 36.1157 128.168 36.8224C128.783 37.5291 129.706 37.8824 130.937 37.8824C132.168 37.8824 133.091 37.5291 133.706 36.8224C134.344 36.093 134.663 35.0899 134.663 33.8134V32.3435L141.364 31.7727V33.8134C141.364 36.0246 140.897 37.9166 139.962 39.4895C139.028 41.0396 137.752 42.2136 136.133 43.0114C134.538 43.7865 132.76 44.174 130.8 44.174C128.84 44.174 127.085 43.7865 125.536 43.0114C124.009 42.2136 122.801 41.0396 121.912 39.4895C121.046 37.9394 120.613 36.0474 120.613 33.8134V33.5406L127.279 32.9726ZM141.364 25.8087L134.663 26.5094V19.8283H141.364V25.8087Z" fill="white"/>
<path d="M155.715 26.8245C156.207 27.0491 156.264 27.7064 155.818 28.0077L148.893 32.6837C148.447 32.985 147.832 32.7043 147.787 32.1784L147.079 24.0171C147.033 23.4912 147.591 23.1146 148.083 23.3392L155.715 26.8245Z" fill="white"/>
</svg>
