<svg width="200" height="64" viewBox="0 0 200 64" fill="none" xmlns="http://www.w3.org/2000/svg">
<g clip-path="url(#clip0_2348_13929)">
<path d="M50.6228 39.1938C48.133 43.4851 43.488 46.3716 38.1698 46.3716C30.2237 46.3716 23.7824 39.9303 23.7824 31.9842C23.7824 24.0382 30.2237 17.5968 38.1698 17.5968C43.494 17.5968 48.142 20.4893 50.6298 24.7875L53.7431 22.9851C50.6318 17.6138 44.8229 14 38.1698 14C28.2375 14 20.1855 22.0519 20.1855 31.9842C20.1855 41.9164 28.2375 49.9684 38.1698 49.9684C44.8199 49.9684 50.6258 46.3586 53.7381 40.9923L50.6228 39.1938Z" fill="white"/>
<path d="M56.1543 30.1856H41.2813C40.6589 29.1116 39.4999 28.3872 38.1701 28.3872C36.1838 28.3872 34.5732 29.9977 34.5732 31.984C34.5732 33.9703 36.1838 35.5809 38.1701 35.5809C39.5009 35.5809 40.66 34.8565 41.2813 33.7825H56.1543V30.1856Z" fill="white"/>
<path d="M84.8226 37.9702C84.1664 38.8596 83.3156 39.5821 82.2704 40.1368C81.2239 40.6915 79.9672 40.9683 78.5002 40.9683C77.235 40.9683 76.0689 40.7531 74.9995 40.3242C73.9299 39.8952 73.0092 39.2933 72.2359 38.5212C71.4623 37.749 70.8582 36.827 70.4207 35.7576C69.9833 34.6882 69.7646 33.5136 69.7646 32.2326C69.7646 30.9372 69.987 29.7542 70.4316 28.6848C70.8764 27.6153 71.4926 26.7018 72.2816 25.9453C73.0695 25.1888 74.0025 24.5991 75.0803 24.1774C76.1583 23.7557 77.328 23.5454 78.5932 23.5454C79.1551 23.5454 79.7254 23.5998 80.3032 23.7097C80.8808 23.8197 81.4354 23.9829 81.966 24.2016C82.4963 24.4203 82.9809 24.6898 83.4184 25.01C83.8558 25.3302 84.2305 25.7012 84.5422 26.1229L82.7152 27.5283C82.3091 26.9664 81.7351 26.5024 80.9943 26.135C80.2523 25.7689 79.4524 25.5852 78.5944 25.5852C77.6265 25.5852 76.7564 25.7604 75.983 26.1121C75.2096 26.4637 74.55 26.9398 74.0036 27.5489C73.4575 28.1579 73.0358 28.8648 72.7384 29.6684C72.4413 30.4732 72.2938 31.3276 72.2938 32.2326C72.2938 33.1692 72.4376 34.0441 72.7275 34.8562C73.0165 35.6682 73.4297 36.3751 73.9686 36.9756C74.5076 37.5775 75.1626 38.0487 75.936 38.3932C76.7093 38.7363 77.571 38.9079 78.5231 38.9079C79.4597 38.9079 80.3104 38.7207 81.0753 38.346C81.8403 37.9714 82.4722 37.4251 82.9725 36.7062L84.8226 37.9702Z" fill="white"/>
<path d="M87.0474 30.6872C87.0316 30.2184 87.0087 29.805 86.9773 29.4461H89.0617C89.0931 29.7277 89.1161 30.0515 89.1318 30.4176C89.1476 30.785 89.1548 31.0847 89.1548 31.3192H89.2249C89.5366 30.663 89.9934 30.1361 90.5951 29.7386C91.1958 29.341 91.8712 29.1416 92.6205 29.1416C92.9637 29.1416 93.2525 29.173 93.487 29.2346L93.3938 31.272C93.0809 31.1946 92.7461 31.1548 92.3872 31.1548C91.8567 31.1548 91.3952 31.2527 91.0061 31.4473C90.6158 31.643 90.2918 31.904 90.0345 32.2315C89.7771 32.559 89.5849 32.9384 89.4605 33.3674C89.3348 33.7964 89.2732 34.2459 89.2732 34.7136V40.5453H87.0716V31.8352C87.0716 31.5392 87.063 31.1559 87.0474 30.6872Z" fill="white"/>
<path d="M105.502 34.903C105.502 35.0287 105.502 35.1531 105.502 35.2777C105.502 35.4032 105.494 35.5278 105.479 35.6522H96.6507C96.6663 36.1176 96.7715 36.5562 96.9673 36.9658C97.1618 37.3766 97.4241 37.7331 97.7515 38.0352C98.079 38.3374 98.4573 38.5742 98.8874 38.7446C99.3164 38.915 99.7732 39.0007 100.258 39.0007C101.007 39.0007 101.655 38.8363 102.202 38.5089C102.748 38.1814 103.177 37.7827 103.49 37.315L105.036 38.5561C104.442 39.3427 103.744 39.9216 102.939 40.2937C102.134 40.6648 101.241 40.8508 100.258 40.8508C99.4143 40.8508 98.6337 40.7107 97.9159 40.429C97.1981 40.1488 96.5806 39.7536 96.0659 39.2461C95.551 38.7384 95.145 38.1258 94.8477 37.408C94.5506 36.6902 94.4031 35.894 94.4031 35.0191C94.4031 34.1611 94.548 33.3683 94.8368 32.6421C95.1269 31.9158 95.5293 31.2959 96.0453 30.7799C96.5613 30.2652 97.1716 29.8627 97.876 29.574C98.5805 29.2851 99.3382 29.1401 100.153 29.1401C100.966 29.1401 101.706 29.2731 102.37 29.5389C103.035 29.8048 103.598 30.1866 104.059 30.6869C104.521 31.1871 104.876 31.7914 105.128 32.5019C105.377 33.2124 105.502 34.0125 105.502 34.903ZM103.253 34.0125C103.238 33.575 103.164 33.1654 103.031 32.7834C102.898 32.4017 102.704 32.0693 102.446 31.7878C102.189 31.5062 101.869 31.2839 101.486 31.1207C101.103 30.9564 100.654 30.8754 100.139 30.8754C99.6704 30.8754 99.2294 30.9576 98.8162 31.1207C98.4018 31.285 98.0429 31.5073 97.7396 31.7878C97.435 32.0693 97.1849 32.4004 96.9903 32.7834C96.7945 33.1665 96.6821 33.5762 96.6507 34.0125H103.253Z" fill="white"/>
<path d="M117.399 38.7909C116.977 39.4628 116.403 39.9739 115.678 40.3244C114.952 40.676 114.191 40.8511 113.394 40.8511C112.535 40.8511 111.763 40.6989 111.075 40.3945C110.388 40.0899 109.803 39.6731 109.32 39.1413C108.835 38.6108 108.46 37.9861 108.196 37.2683C107.93 36.5505 107.798 35.7855 107.798 34.9735C107.798 34.1614 107.931 33.4013 108.196 32.6895C108.462 31.979 108.84 31.3591 109.332 30.8275C109.823 30.297 110.412 29.8825 111.1 29.5864C111.786 29.2904 112.543 29.1417 113.371 29.1417C114.276 29.1417 115.066 29.3326 115.736 29.7157C116.407 30.0988 116.938 30.5629 117.329 31.109H117.376V22.8423H119.578V40.5467H117.446V38.7909H117.399ZM110.092 34.9844C110.092 35.498 110.17 35.997 110.326 36.4792C110.482 36.9614 110.716 37.3904 111.028 37.7637C111.34 38.1371 111.723 38.4368 112.176 38.6627C112.629 38.8888 113.16 39.0011 113.769 39.0011C114.331 39.0011 114.842 38.8924 115.302 38.6749C115.763 38.4573 116.157 38.1649 116.485 37.7987C116.814 37.4325 117.067 37.0084 117.247 36.5262C117.426 36.0442 117.516 35.5378 117.516 35.0085C117.516 34.4793 117.427 33.9729 117.247 33.4907C117.067 33.0087 116.813 32.5809 116.485 32.2062C116.158 31.8328 115.763 31.5368 115.302 31.3193C114.842 31.1018 114.331 30.9919 113.769 30.9919C113.16 30.9919 112.629 31.1005 112.176 31.3193C111.723 31.538 111.341 31.8328 111.028 32.2062C110.715 32.5797 110.482 33.0074 110.326 33.4907C110.17 33.9729 110.092 34.4708 110.092 34.9844Z" fill="white"/>
<path d="M125.993 25.4415C125.993 25.8476 125.849 26.1835 125.563 26.4481C125.277 26.714 124.932 26.8469 124.53 26.8469C124.127 26.8469 123.787 26.7104 123.507 26.4372C123.228 26.1642 123.089 25.833 123.089 25.4415C123.089 25.0355 123.228 24.6959 123.507 24.4228C123.787 24.1497 124.127 24.0132 124.53 24.0132C124.932 24.0132 125.277 24.1497 125.563 24.4228C125.849 24.6959 125.993 25.0355 125.993 25.4415ZM125.642 40.5467H123.44V29.4462H125.642V40.5467Z" fill="white"/>
<path d="M134.915 31.2491H131.964V37.0156C131.964 37.6851 132.088 38.1635 132.339 38.4512C132.589 38.7387 132.986 38.8825 133.532 38.8825C133.736 38.8825 133.954 38.8608 134.189 38.8184C134.423 38.7763 134.633 38.7109 134.821 38.6252L134.891 40.4282C134.625 40.5224 134.332 40.596 134.012 40.6505C133.692 40.7048 133.36 40.7326 133.016 40.7326C131.97 40.7326 131.17 40.4438 130.617 39.8662C130.062 39.2887 129.785 38.4221 129.785 37.267V31.2491H127.654V29.4461H129.785V26.2607H131.963V29.4461H134.914V31.2491H134.915Z" fill="white"/>
<path d="M144.961 32.2568C144.727 31.8979 144.377 31.5972 143.908 31.3554C143.439 31.1137 142.94 30.9929 142.409 30.9929C141.832 30.9929 141.32 31.1029 140.876 31.3204C140.431 31.5391 140.052 31.8315 139.74 32.1989C139.427 32.5663 139.19 32.9917 139.026 33.475C138.861 33.9596 138.779 34.4671 138.779 34.9976C138.779 35.5281 138.861 36.0356 139.026 36.5202C139.19 37.0047 139.428 37.4301 139.74 37.7963C140.052 38.1635 140.435 38.4561 140.888 38.6748C141.341 38.8935 141.856 39.0023 142.433 39.0023C142.995 39.0023 143.507 38.8935 143.967 38.6748C144.427 38.4561 144.806 38.1601 145.103 37.7854L146.578 39.1207C146.109 39.6668 145.525 40.0922 144.822 40.3968C144.12 40.7012 143.324 40.8536 142.433 40.8536C141.574 40.8536 140.783 40.7134 140.057 40.4318C139.33 40.1514 138.702 39.7562 138.171 39.2487C137.641 38.7413 137.223 38.1286 136.918 37.4108C136.614 36.6929 136.461 35.8881 136.461 34.9988C136.461 34.1251 136.61 33.3288 136.906 32.6097C137.202 31.8919 137.617 31.2744 138.147 30.7597C138.678 30.2449 139.306 29.8461 140.032 29.5658C140.759 29.2842 141.543 29.144 142.386 29.144C143.167 29.144 143.944 29.2999 144.716 29.6129C145.49 29.9258 146.101 30.3779 146.554 30.9711L144.961 32.2568Z" fill="white"/>
<path d="M159.997 34.9734C159.997 35.8326 159.844 36.6204 159.54 37.3383C159.235 38.0561 158.814 38.6771 158.275 39.2004C157.736 39.7236 157.1 40.1297 156.367 40.4185C155.633 40.7073 154.844 40.8523 154.002 40.8523C153.158 40.8523 152.37 40.7073 151.637 40.4185C150.903 40.1297 150.27 39.7236 149.74 39.2004C149.209 38.6771 148.791 38.0572 148.487 37.3383C148.182 36.6204 148.03 35.8314 148.03 34.9734C148.03 34.1154 148.182 33.33 148.487 32.6195C148.791 31.9088 149.208 31.2962 149.74 30.7814C150.27 30.2667 150.902 29.8642 151.637 29.5754C152.37 29.2866 153.159 29.1416 154.002 29.1416C154.845 29.1416 155.633 29.2866 156.367 29.5754C157.1 29.8642 157.737 30.2667 158.275 30.7814C158.812 31.2962 159.235 31.91 159.54 32.6195C159.844 33.33 159.997 34.1143 159.997 34.9734ZM157.701 34.9843C157.701 34.455 157.618 33.9486 157.454 33.4664C157.29 32.9844 157.05 32.5603 156.738 32.1941C156.425 31.8279 156.037 31.5366 155.575 31.3179C155.113 31.1004 154.584 30.9905 153.99 30.9905C153.394 30.9905 152.866 31.0993 152.404 31.3179C151.943 31.5366 151.555 31.8279 151.242 32.1941C150.929 32.5603 150.69 32.9844 150.525 33.4664C150.361 33.9486 150.279 34.455 150.279 34.9843C150.279 35.5135 150.361 36.0199 150.525 36.5019C150.69 36.9842 150.929 37.4132 151.242 37.7866C151.555 38.16 151.943 38.456 152.404 38.6735C152.866 38.8923 153.395 38.9998 153.99 38.9998C154.584 38.9998 155.113 38.891 155.575 38.6735C156.037 38.456 156.425 38.16 156.738 37.7866C157.05 37.4132 157.29 36.9854 157.454 36.5019C157.618 36.0199 157.701 35.5148 157.701 34.9843Z" fill="white"/>
<path d="M165.617 25.4415C165.617 25.8476 165.473 26.1835 165.187 26.4481C164.9 26.714 164.556 26.8469 164.153 26.8469C163.751 26.8469 163.41 26.7104 163.131 26.4372C162.852 26.1642 162.713 25.833 162.713 25.4415C162.713 25.0355 162.852 24.6959 163.131 24.4228C163.41 24.1497 163.751 24.0132 164.153 24.0132C164.556 24.0132 164.9 24.1497 165.187 24.4228C165.473 24.6959 165.617 25.0355 165.617 25.4415ZM165.265 40.5467H163.064V29.4462H165.265V40.5467Z" fill="white"/>
<path d="M171.096 29.4461C171.127 29.7277 171.15 30.0431 171.166 30.3947C171.182 30.7464 171.189 31.0388 171.189 31.2733H171.259C171.399 30.9772 171.59 30.6993 171.833 30.4418C172.075 30.1844 172.351 29.9585 172.664 29.7627C172.976 29.5682 173.32 29.4159 173.695 29.3059C174.07 29.1972 174.46 29.1416 174.866 29.1416C175.584 29.1416 176.201 29.2624 176.716 29.5041C177.231 29.747 177.661 30.0696 178.004 30.4757C178.347 30.8817 178.601 31.3579 178.765 31.904C178.929 32.4502 179.011 33.0363 179.011 33.6598V40.5453H176.81V34.3873C176.81 33.9341 176.775 33.5051 176.705 33.0992C176.635 32.693 176.506 32.3342 176.319 32.0225C176.131 31.7106 175.874 31.4605 175.545 31.2733C175.218 31.086 174.796 30.9917 174.28 30.9917C173.405 30.9917 172.691 31.3239 172.137 31.9874C171.583 32.6509 171.306 33.5365 171.306 34.6459V40.5478H169.104V31.8352C169.104 31.5392 169.096 31.1559 169.081 30.6872C169.066 30.2184 169.043 29.805 169.011 29.4461H171.096Z" fill="white"/>
</g>
<defs>
<clipPath id="clip0_2348_13929">
<rect width="158.842" height="36" fill="white" transform="translate(20.1836 14)"/>
</clipPath>
</defs>
</svg>
