<svg width="146" height="64" viewBox="0 0 146 64" fill="none" xmlns="http://www.w3.org/2000/svg">
<g clip-path="url(#clip0_3322_36)">
<mask id="mask0_3322_36" style="mask-type:luminance" maskUnits="userSpaceOnUse" x="58" y="22" width="22" height="21">
<path fill-rule="evenodd" clip-rule="evenodd" d="M58.252 22.0889H79.1993V42.0212H58.252V22.0889Z" fill="white"/>
</mask>
<g mask="url(#mask0_3322_36)">
<path fill-rule="evenodd" clip-rule="evenodd" d="M72.2275 37.9938C73.2646 37.4129 74.0796 36.6007 74.6724 35.558C75.2651 34.5153 75.5615 33.3479 75.5615 32.056C75.5615 30.7639 75.2651 29.5966 74.6724 28.5538C74.0796 27.5111 73.2646 26.6989 72.2275 26.1176C71.1901 25.536 70.0231 25.2457 68.7269 25.2457C67.4304 25.2457 66.2636 25.536 65.227 26.1176C64.189 26.6989 63.3743 27.5111 62.7821 28.5538C62.189 29.5966 61.893 30.7639 61.893 32.056C61.893 33.3479 62.189 34.5153 62.7821 35.558C63.3743 36.6007 64.189 37.4129 65.227 37.9938C66.2636 38.5751 67.4304 38.8658 68.7269 38.8658C70.0231 38.8658 71.1901 38.5751 72.2275 37.9938ZM63.3642 40.734C61.7709 39.876 60.5207 38.6852 59.6138 37.1631C58.7059 35.6402 58.2522 33.9377 58.2522 32.0554C58.2522 30.1728 58.7059 28.4698 59.6138 26.9473C60.5207 25.4248 61.7709 24.2344 63.3642 23.3762C64.9567 22.5182 66.7437 22.0889 68.7256 22.0889C70.7073 22.0889 72.4944 22.5182 74.0877 23.3762C75.6805 24.2344 76.9304 25.4206 77.838 26.9337C78.7453 28.4471 79.1996 30.1544 79.1996 32.0554C79.1996 33.9561 78.7453 35.6633 77.838 37.1768C76.9304 38.6903 75.6805 39.876 74.0877 40.734C72.4944 41.5919 70.7073 42.0215 68.7256 42.0215C66.7437 42.0215 64.9567 41.5919 63.3642 40.734Z" fill="white"/>
</g>
<path fill-rule="evenodd" clip-rule="evenodd" d="M20.5457 22.3652V41.7437H32.9425L35.1312 38.7264H24.1573V33.3835H32.5403L32.5282 30.4211H24.1573V25.3829H32.5355L34.7419 22.3652H20.5457Z" fill="white"/>
<path fill-rule="evenodd" clip-rule="evenodd" d="M83.3096 22.3652H86.9212V38.6991H97.0894L94.8749 41.7441H83.3096V22.3652Z" fill="white"/>
<path fill-rule="evenodd" clip-rule="evenodd" d="M99.4375 22.3652H103.049V36.7385L99.4375 41.7441V22.3652Z" fill="white"/>
<path fill-rule="evenodd" clip-rule="evenodd" d="M49.9598 32.3869L56.7666 41.7441H52.8492L38.4863 22.3652H42.5978L47.8208 29.7291L53.0989 22.3652H57.2664L49.9598 32.3869Z" fill="white"/>
<mask id="mask1_3322_36" style="mask-type:luminance" maskUnits="userSpaceOnUse" x="106" y="22" width="20" height="20">
<path fill-rule="evenodd" clip-rule="evenodd" d="M106.396 22.3652H125.176V41.7441H106.396V22.3652Z" fill="white"/>
</mask>
<g mask="url(#mask1_3322_36)">
<path fill-rule="evenodd" clip-rule="evenodd" d="M117.87 31.7224L124.676 22.3652H120.759L106.396 41.7441H110.508L115.731 34.3801L121.008 41.7441H125.176L117.87 31.7224Z" fill="white"/>
</g>
<path fill-rule="evenodd" clip-rule="evenodd" d="M47.0504 41.7444L42.7039 35.8804L38.4834 41.7444H41.8801H47.0504Z" fill="white"/>
<path fill-rule="evenodd" clip-rule="evenodd" d="M106.393 22.3652L110.739 28.2297L114.96 22.3652H111.563H106.393Z" fill="white"/>
</g>
<defs>
<clipPath id="clip0_3322_36">
<rect width="105" height="20" fill="white" transform="translate(20.1836 22)"/>
</clipPath>
</defs>
</svg>
